<mxfile host="app.diagrams.net" modified="2023-05-23T18:45:03.276Z" agent="Mozilla/5.0 (Windows NT 10.0; Win64; x64; rv:109.0) Gecko/20100101 Firefox/113.0" etag="j-00_FZe5escJTf8DwiF" version="21.3.2" type="device">
  <diagram name="1 oldal" id="efUGQUTGYi6EQR7r4Sqp">
    <mxGraphModel dx="909" dy="1449" grid="1" gridSize="10" guides="1" tooltips="1" connect="1" arrows="1" fold="1" page="0" pageScale="1" pageWidth="827" pageHeight="1169" math="0" shadow="0">
      <root>
        <mxCell id="0" />
        <mxCell id="1" parent="0" />
        <mxCell id="qI7ad0C5QOCOGanBFrG0-22" value="&lt;p style=&quot;margin:0px;margin-top:4px;text-align:center;&quot;&gt;&lt;i&gt;&amp;lt;&amp;lt;abstract&amp;gt;&amp;gt;&lt;/i&gt;&lt;b&gt;&lt;br&gt;&lt;/b&gt;&lt;/p&gt;&lt;p style=&quot;margin:0px;margin-top:4px;text-align:center;&quot;&gt;&lt;b&gt;Vetitoterem&lt;/b&gt;&lt;br&gt;&lt;b&gt;&lt;/b&gt;&lt;/p&gt;&lt;hr size=&quot;1&quot;&gt;&lt;div&gt;&amp;nbsp;+ alapAr : int&amp;nbsp; &amp;nbsp; {readonly}&lt;br&gt;&lt;/div&gt;&lt;div&gt;&amp;nbsp;+ sorokSzama : int&amp;nbsp; &amp;nbsp; {readonly}&lt;/div&gt;&lt;div&gt;&amp;nbsp;+ ulesSorban : int&amp;nbsp; &amp;nbsp; {readonly}&lt;/div&gt;&lt;hr size=&quot;1&quot;&gt;&lt;p style=&quot;margin:0px;margin-left:4px;&quot;&gt;+ Vetitoterem(alapAr:int, sorokSzama:int, ulesSorban:int)&lt;/p&gt;&lt;p style=&quot;margin:0px;margin-left:4px;&quot;&gt;+ Kozepes() : boolean&amp;nbsp;&amp;nbsp;&amp;nbsp; {query}&lt;/p&gt;&lt;p style=&quot;margin:0px;margin-left:4px;&quot;&gt;+ Nagy() : boolean&amp;nbsp;&amp;nbsp;&amp;nbsp; {query}&lt;/p&gt;&lt;p style=&quot;margin:0px;margin-left:4px;&quot;&gt;+ Vip() : Boolean&amp;nbsp;&amp;nbsp;&amp;nbsp; {query}&lt;/p&gt;&lt;p style=&quot;margin:0px;margin-left:4px;&quot;&gt;+ KeresettEloadas(cim:string, ido:Ido, terem:Terem) : Eloadas &amp;nbsp;&amp;nbsp; {query}&lt;/p&gt;&lt;p style=&quot;margin:0px;margin-left:4px;&quot;&gt;+ UjEloadas(eloadas:Film)&lt;/p&gt;&lt;p style=&quot;margin:0px;margin-left:4px;&quot;&gt;+ ValosUles(ules:Ules)&amp;nbsp;&amp;nbsp;&amp;nbsp; {query}&lt;/p&gt;&lt;p style=&quot;margin:0px;margin-left:4px;&quot;&gt;+ Szazalek(t:Foglalas) : int&amp;nbsp;&amp;nbsp;&amp;nbsp; {virtual, query}&lt;br&gt;&lt;/p&gt;" style="verticalAlign=top;align=left;overflow=fill;fontSize=12;fontFamily=Helvetica;html=1;whiteSpace=wrap;" parent="1" vertex="1">
          <mxGeometry x="298.5" y="317.5" width="390" height="235" as="geometry" />
        </mxCell>
        <mxCell id="qI7ad0C5QOCOGanBFrG0-23" value="&lt;p style=&quot;margin:0px;margin-top:4px;text-align:center;&quot;&gt;&lt;b&gt;Szinhaz&lt;/b&gt;&lt;br&gt;&lt;/p&gt;&lt;hr size=&quot;1&quot;&gt;&lt;hr size=&quot;1&quot;&gt;&lt;div&gt;&lt;div&gt;&amp;nbsp;+ Szinhaz()&lt;/div&gt;&amp;nbsp;+ LegtobbetNezettFilm() : string&amp;nbsp; &amp;nbsp; {readonly, query}&lt;/div&gt;&lt;div&gt;&amp;nbsp;+ Ar(vetito:Vetitoterem, foglalas:Foglalas) : int&amp;nbsp;&amp;nbsp;&amp;nbsp; {singleton, query}&lt;/div&gt;&lt;div&gt;&amp;nbsp;+ JegyEladas(cim:string, ido:Ido, terem:Terem, foglalas:Foglalas, penz:int) : int&lt;/div&gt;&lt;div&gt;&amp;nbsp;+ Lemondas(cim:string, ido:Ido, terem:Terem, foglalas:Foglalas)&lt;/div&gt;&lt;div&gt;&amp;nbsp;+ Lefoglal(cim:string, ido:Ido, terem:Terem, foglalas:Foglalas)&lt;/div&gt;&lt;div&gt;&amp;nbsp;+ TeremNyitas(vetito:Vetitoterem)&lt;br&gt;&lt;/div&gt;" style="verticalAlign=top;align=left;overflow=fill;fontSize=12;fontFamily=Helvetica;html=1;whiteSpace=wrap;" parent="1" vertex="1">
          <mxGeometry x="258.5" y="55" width="470" height="150" as="geometry" />
        </mxCell>
        <mxCell id="qI7ad0C5QOCOGanBFrG0-24" value="&lt;p style=&quot;margin:0px;margin-top:4px;text-align:center;&quot;&gt;&lt;b&gt;KozepesTerem&lt;/b&gt;&lt;br&gt;&lt;/p&gt;&lt;hr size=&quot;1&quot;&gt;&lt;p style=&quot;margin:0px;margin-left:4px;&quot;&gt;+ KozepesTerem(alapAr:int, sorokSzama:int, ulesSorban:int)&lt;/p&gt;&lt;p style=&quot;margin:0px;margin-left:4px;&quot;&gt;+ Szazalek(t:Foglalas) : int&amp;nbsp;&amp;nbsp;&amp;nbsp; {override, query}&lt;br&gt;&lt;/p&gt;&lt;p style=&quot;margin:0px;margin-left:4px;&quot;&gt;+ Kozepes() : boolean &amp;nbsp;&amp;nbsp; {override, query}&lt;/p&gt;&lt;p style=&quot;margin:0px;margin-left:4px;&quot;&gt;&lt;/p&gt;" style="verticalAlign=top;align=left;overflow=fill;fontSize=12;fontFamily=Helvetica;html=1;whiteSpace=wrap;" parent="1" vertex="1">
          <mxGeometry x="-31.5" y="770" width="330" height="90" as="geometry" />
        </mxCell>
        <mxCell id="qI7ad0C5QOCOGanBFrG0-25" value="" style="endArrow=block;dashed=1;endFill=0;endSize=12;html=1;rounded=0;entryX=0.5;entryY=1;entryDx=0;entryDy=0;edgeStyle=elbowEdgeStyle;elbow=vertical;exitX=0.5;exitY=0;exitDx=0;exitDy=0;" parent="1" source="qI7ad0C5QOCOGanBFrG0-24" target="qI7ad0C5QOCOGanBFrG0-22" edge="1">
          <mxGeometry width="160" relative="1" as="geometry">
            <mxPoint x="88.5" y="730" as="sourcePoint" />
            <mxPoint x="648.5" y="620" as="targetPoint" />
            <Array as="points">
              <mxPoint x="368.5" y="680" />
              <mxPoint x="398.5" y="710" />
              <mxPoint x="458.5" y="680" />
              <mxPoint x="468.5" y="680" />
              <mxPoint x="298.5" y="680" />
            </Array>
          </mxGeometry>
        </mxCell>
        <mxCell id="qI7ad0C5QOCOGanBFrG0-26" value="&lt;p style=&quot;margin:0px;margin-top:4px;text-align:center;&quot;&gt;&lt;b&gt;NagyTerem&lt;/b&gt;&lt;br&gt;&lt;/p&gt;&lt;hr size=&quot;1&quot;&gt;&lt;p style=&quot;margin:0px;margin-left:4px;&quot;&gt;+ NagyTerem(alapAr:int, sorokSzama:int, ulesSorban:int)&lt;/p&gt;&lt;p style=&quot;margin:0px;margin-left:4px;&quot;&gt;+ Szazalek(t:Foglalas) : int&amp;nbsp;&amp;nbsp;&amp;nbsp; {override, query}&lt;/p&gt;&lt;p style=&quot;margin:0px;margin-left:4px;&quot;&gt;+ Nagy() : boolean &amp;nbsp;&amp;nbsp; {override, query}&lt;/p&gt;&lt;p style=&quot;margin:0px;margin-left:4px;&quot;&gt;&lt;/p&gt;" style="verticalAlign=top;align=left;overflow=fill;fontSize=12;fontFamily=Helvetica;html=1;whiteSpace=wrap;" parent="1" vertex="1">
          <mxGeometry x="339.75" y="770.21" width="307.5" height="89.79" as="geometry" />
        </mxCell>
        <mxCell id="qI7ad0C5QOCOGanBFrG0-27" value="&lt;p style=&quot;margin:0px;margin-top:4px;text-align:center;&quot;&gt;&lt;b&gt;VipTerem&lt;/b&gt;&lt;br&gt;&lt;/p&gt;&lt;hr size=&quot;1&quot;&gt;&lt;p style=&quot;margin:0px;margin-left:4px;&quot;&gt;+ VipTerem(alapAr:int, sorokSzama:int, ulesSorban:int)&lt;/p&gt;&lt;p style=&quot;margin:0px;margin-left:4px;&quot;&gt;+ Szazalek(t:Foglalas) : int&amp;nbsp;&amp;nbsp;&amp;nbsp; {override, query}&lt;/p&gt;&lt;p style=&quot;margin:0px;margin-left:4px;&quot;&gt;+ Vip() : boolean &amp;nbsp;&amp;nbsp; {override, query}&lt;/p&gt;&lt;p style=&quot;margin:0px;margin-left:4px;&quot;&gt;&lt;/p&gt;" style="verticalAlign=top;align=left;overflow=fill;fontSize=12;fontFamily=Helvetica;html=1;whiteSpace=wrap;" parent="1" vertex="1">
          <mxGeometry x="668.5" y="770.21" width="300" height="89.79" as="geometry" />
        </mxCell>
        <mxCell id="qI7ad0C5QOCOGanBFrG0-30" value="" style="endArrow=block;dashed=1;endFill=0;endSize=12;html=1;rounded=0;entryX=0.5;entryY=1;entryDx=0;entryDy=0;exitX=0.5;exitY=0;exitDx=0;exitDy=0;edgeStyle=elbowEdgeStyle;elbow=vertical;" parent="1" source="qI7ad0C5QOCOGanBFrG0-27" target="qI7ad0C5QOCOGanBFrG0-22" edge="1">
          <mxGeometry width="160" relative="1" as="geometry">
            <mxPoint x="488.5" y="620" as="sourcePoint" />
            <mxPoint x="648.5" y="620" as="targetPoint" />
            <Array as="points">
              <mxPoint x="668.5" y="680" />
              <mxPoint x="688.5" y="680" />
            </Array>
          </mxGeometry>
        </mxCell>
        <mxCell id="qI7ad0C5QOCOGanBFrG0-31" value="" style="endArrow=block;dashed=1;endFill=0;endSize=12;html=1;rounded=0;entryX=0.5;entryY=1;entryDx=0;entryDy=0;exitX=0.5;exitY=0;exitDx=0;exitDy=0;edgeStyle=elbowEdgeStyle;elbow=vertical;" parent="1" source="qI7ad0C5QOCOGanBFrG0-26" target="qI7ad0C5QOCOGanBFrG0-22" edge="1">
          <mxGeometry width="160" relative="1" as="geometry">
            <mxPoint x="528.5" y="660" as="sourcePoint" />
            <mxPoint x="688.5" y="660" as="targetPoint" />
          </mxGeometry>
        </mxCell>
        <mxCell id="qI7ad0C5QOCOGanBFrG0-32" value="&lt;p style=&quot;margin:0px;margin-top:4px;text-align:center;&quot;&gt;&lt;b&gt;Eloadas&lt;/b&gt;&lt;br&gt;&lt;/p&gt;&lt;hr size=&quot;1&quot;&gt;&lt;p style=&quot;margin:0px;margin-left:4px;&quot;&gt;+ filmcim : string&amp;nbsp; &amp;nbsp; {readonly}&lt;/p&gt;&lt;p style=&quot;margin:0px;margin-left:4px;&quot;&gt;+ maxHely : int&amp;nbsp;&amp;nbsp;&amp;nbsp; {readonly}&lt;/p&gt;&lt;hr size=&quot;1&quot;&gt;&lt;p style=&quot;margin:0px;margin-left:4px;&quot;&gt;+ Eloadas(cim:string, ido:Ido)&lt;/p&gt;&lt;p style=&quot;margin:0px;margin-left:4px;&quot;&gt;+ HelyekSzama : int&lt;sup&gt;3&lt;/sup&gt;&amp;nbsp;&amp;nbsp;&amp;nbsp; {readonly, query}&lt;/p&gt;&lt;p style=&quot;margin:0px;margin-left:4px;&quot;&gt;+ Szabadda(a:Allapot)&amp;nbsp;&amp;nbsp;&amp;nbsp; {singleton}&lt;/p&gt;&lt;p style=&quot;margin:0px;margin-left:4px;&quot;&gt;+ Foglaltta(a:Allapot)&amp;nbsp;&amp;nbsp;&amp;nbsp; {singleton}&lt;/p&gt;&lt;p style=&quot;margin:0px;margin-left:4px;&quot;&gt;+ Eladotta(a:Allapot)&amp;nbsp;&amp;nbsp;&amp;nbsp; {singleton}&lt;br&gt;&lt;/p&gt;&lt;p style=&quot;margin:0px;margin-left:4px;&quot;&gt;+ FoglalttaAllitas(nev:string, tipus:Tipus, ules:Ules)&lt;/p&gt;&lt;p style=&quot;margin:0px;margin-left:4px;&quot;&gt;+ EladottaAllitas(nev:string, tipus:Tipus)&lt;/p&gt;&lt;p style=&quot;margin:0px;margin-left:4px;&quot;&gt;+ SzabaddaAllitas(nev:string, tipus:Tipus, ules:Ules)&lt;/p&gt;" style="verticalAlign=top;align=left;overflow=fill;fontSize=12;fontFamily=Helvetica;html=1;whiteSpace=wrap;" parent="1" vertex="1">
          <mxGeometry x="1260" y="330" width="300" height="203.75" as="geometry" />
        </mxCell>
        <mxCell id="qI7ad0C5QOCOGanBFrG0-33" value="&lt;p style=&quot;margin:0px;margin-top:4px;text-align:center;&quot;&gt;&lt;b&gt;Foglalas&lt;/b&gt;&lt;br&gt;&lt;/p&gt;&lt;hr size=&quot;1&quot;&gt;&lt;p style=&quot;margin:0px;margin-left:4px;&quot;&gt;+ allapot : Allapot&amp;nbsp; &amp;nbsp; {readonly}&lt;/p&gt;&lt;p style=&quot;margin:0px;margin-left:4px;&quot;&gt;+ nev : string&amp;nbsp; &amp;nbsp; {readonly}&lt;/p&gt;&lt;p style=&quot;margin:0px;margin-left:4px;&quot;&gt;+ tipus : Tipus &amp;nbsp;&amp;nbsp; {readonly}&lt;br&gt;&lt;/p&gt;&lt;hr size=&quot;1&quot;&gt;&lt;p style=&quot;margin:0px;margin-left:4px;&quot;&gt;+ Foglalas(nev:string, ules:Ules)&lt;br&gt;&lt;/p&gt;" style="verticalAlign=top;align=left;overflow=fill;fontSize=12;fontFamily=Helvetica;html=1;whiteSpace=wrap;" parent="1" vertex="1">
          <mxGeometry x="1315" y="590" width="190" height="110" as="geometry" />
        </mxCell>
        <mxCell id="qI7ad0C5QOCOGanBFrG0-36" value="" style="endArrow=diamondThin;endFill=0;endSize=24;html=1;rounded=0;entryX=0.5;entryY=1;entryDx=0;entryDy=0;exitX=0.5;exitY=0;exitDx=0;exitDy=0;" parent="1" source="qI7ad0C5QOCOGanBFrG0-33" target="qI7ad0C5QOCOGanBFrG0-32" edge="1">
          <mxGeometry width="160" relative="1" as="geometry">
            <mxPoint x="1475" y="510" as="sourcePoint" />
            <mxPoint x="1635" y="510" as="targetPoint" />
          </mxGeometry>
        </mxCell>
        <mxCell id="qI7ad0C5QOCOGanBFrG0-38" value="&lt;p style=&quot;margin:0px;margin-top:4px;text-align:center;&quot;&gt;&lt;b&gt;Szemely&lt;/b&gt;&lt;/p&gt;&lt;hr size=&quot;1&quot;&gt;&lt;div&gt;&amp;nbsp;+ nev : string &amp;nbsp;&amp;nbsp; {readonly}&lt;/div&gt;&amp;nbsp;- penz : int&lt;br&gt;&lt;hr size=&quot;1&quot;&gt;&lt;div&gt;&amp;nbsp;+ Szemely(nev:string, penz:int) &lt;br&gt;&lt;/div&gt;&lt;div&gt;&amp;nbsp;+ Fizet(szinhaz:Szinhaz, cim:string, ido:Ido, terem:Terem, foglalas:Foglalas)&lt;/div&gt;&lt;div&gt;&amp;nbsp;+ Fizet(szinhaz:Szinhaz, cim:string, ido:Ido, terem:Terem, foglalas:Foglalas)&lt;/div&gt;&lt;div&gt;&amp;nbsp;+ Foglal(szinhaz:Szinhaz, cim:string, ido:Ido, terem:Terem, foglalas:Foglalas)&lt;div&gt;&amp;nbsp;+ Lemond(szinhaz:Szinhaz, cim:string, ido:Ido, terem:Terem, foglalas:Foglalas)&lt;/div&gt;&lt;/div&gt;" style="verticalAlign=top;align=left;overflow=fill;fontSize=12;fontFamily=Helvetica;html=1;whiteSpace=wrap;" parent="1" vertex="1">
          <mxGeometry x="-261.5" y="55" width="445" height="150" as="geometry" />
        </mxCell>
        <mxCell id="wcJDTHLtC0xWf3YLXLJS-3" value="&lt;div align=&quot;left&quot;&gt;*&amp;nbsp;&amp;nbsp;&amp;nbsp;&amp;nbsp; + vetitotermek {readonly}&lt;br&gt;&lt;/div&gt;" style="text;html=1;strokeColor=none;fillColor=none;align=left;verticalAlign=middle;whiteSpace=wrap;rounded=0;" parent="1" vertex="1">
          <mxGeometry x="478.5" y="290" width="170" height="30" as="geometry" />
        </mxCell>
        <mxCell id="wcJDTHLtC0xWf3YLXLJS-5" value="&lt;p style=&quot;margin:0px;margin-top:4px;text-align:center;&quot;&gt;&lt;b&gt;Film&lt;/b&gt;&lt;br&gt;&lt;/p&gt;&lt;hr size=&quot;1&quot;&gt;&lt;p style=&quot;margin:0px;margin-left:4px;&quot;&gt;+ cim : string&lt;/p&gt;&lt;p style=&quot;margin:0px;margin-left:4px;&quot;&gt;+ nezettseg : int&amp;nbsp;&amp;nbsp;&amp;nbsp; {readonly}&lt;br&gt;&lt;/p&gt;&lt;hr size=&quot;1&quot;&gt;&lt;p style=&quot;margin:0px;margin-left:4px;&quot;&gt;+Film(cim:string)&lt;/p&gt;&lt;p style=&quot;margin:0px;margin-left:4px;&quot;&gt;+ PluszNezettseg()&lt;br&gt;&lt;/p&gt;" style="verticalAlign=top;align=left;overflow=fill;fontSize=12;fontFamily=Helvetica;html=1;whiteSpace=wrap;" parent="1" vertex="1">
          <mxGeometry x="808.5" y="75" width="160" height="110" as="geometry" />
        </mxCell>
        <mxCell id="wcJDTHLtC0xWf3YLXLJS-6" value="&lt;p style=&quot;margin:0px;margin-top:4px;text-align:center;&quot;&gt;&lt;b&gt;Ido&lt;/b&gt;&lt;br&gt;&lt;/p&gt;&lt;hr size=&quot;1&quot;&gt;&lt;p style=&quot;margin:0px;margin-left:4px;&quot;&gt;+ kezdet : time&lt;/p&gt;&lt;p style=&quot;margin:0px;margin-left:4px;&quot;&gt;+ veg : time&lt;br&gt;&lt;/p&gt;&lt;hr size=&quot;1&quot;&gt;&lt;p style=&quot;margin:0px;margin-left:4px;&quot;&gt;+ Ido(kezdet:time, veg:time)&lt;/p&gt;&lt;p style=&quot;margin:0px;margin-left:4px;&quot;&gt;+ =(a:Ido, b:Ido)&amp;nbsp;&amp;nbsp;&amp;nbsp; {query}&lt;/p&gt;" style="verticalAlign=top;align=left;overflow=fill;fontSize=12;fontFamily=Helvetica;html=1;whiteSpace=wrap;" parent="1" vertex="1">
          <mxGeometry x="1665" y="375" width="160" height="110" as="geometry" />
        </mxCell>
        <mxCell id="mAAy-k8h5P1W6E8aGdol-2" value="" style="endArrow=none;endFill=0;endSize=12;html=1;rounded=0;exitX=1;exitY=0.5;exitDx=0;exitDy=0;entryX=0;entryY=0.5;entryDx=0;entryDy=0;startArrow=diamondThin;startFill=0;startSize=24;" parent="1" source="qI7ad0C5QOCOGanBFrG0-23" target="wcJDTHLtC0xWf3YLXLJS-5" edge="1">
          <mxGeometry width="160" relative="1" as="geometry">
            <mxPoint x="758.5" y="190" as="sourcePoint" />
            <mxPoint x="768.5" y="90" as="targetPoint" />
          </mxGeometry>
        </mxCell>
        <mxCell id="mAAy-k8h5P1W6E8aGdol-3" value="" style="endArrow=diamondThin;endFill=1;endSize=24;html=1;rounded=0;entryX=1;entryY=0.5;entryDx=0;entryDy=0;exitX=0;exitY=0.5;exitDx=0;exitDy=0;" parent="1" source="wcJDTHLtC0xWf3YLXLJS-6" target="qI7ad0C5QOCOGanBFrG0-32" edge="1">
          <mxGeometry width="160" relative="1" as="geometry">
            <mxPoint x="1545" y="460" as="sourcePoint" />
            <mxPoint x="1705" y="460" as="targetPoint" />
          </mxGeometry>
        </mxCell>
        <mxCell id="mAAy-k8h5P1W6E8aGdol-8" value="&lt;p style=&quot;margin:0px;margin-top:4px;text-align:center;&quot;&gt;&lt;b&gt;Ules&lt;/b&gt;&lt;br&gt;&lt;/p&gt;&lt;hr size=&quot;1&quot;&gt;&lt;p style=&quot;margin:0px;margin-left:4px;&quot;&gt;+ sor : int&lt;br&gt;&lt;/p&gt;&lt;p style=&quot;margin:0px;margin-left:4px;&quot;&gt;+ szam : int&lt;br&gt;&lt;/p&gt;&lt;hr size=&quot;1&quot;&gt;&lt;p style=&quot;margin:0px;margin-left:4px;&quot;&gt;+ Ules(sor:char, szam:int)&lt;/p&gt;&lt;p style=&quot;margin:0px;margin-left:4px;&quot;&gt;+ =(a:Ules, b:Sor)&amp;nbsp;&amp;nbsp;&amp;nbsp; {query}&lt;/p&gt;" style="verticalAlign=top;align=left;overflow=fill;fontSize=12;fontFamily=Helvetica;html=1;whiteSpace=wrap;" parent="1" vertex="1">
          <mxGeometry x="1665" y="590" width="160" height="110" as="geometry" />
        </mxCell>
        <mxCell id="mAAy-k8h5P1W6E8aGdol-9" value="" style="endArrow=diamondThin;endFill=1;endSize=24;html=1;rounded=0;entryX=1;entryY=0.5;entryDx=0;entryDy=0;exitX=0;exitY=0.5;exitDx=0;exitDy=0;" parent="1" source="mAAy-k8h5P1W6E8aGdol-8" target="qI7ad0C5QOCOGanBFrG0-33" edge="1">
          <mxGeometry width="160" relative="1" as="geometry">
            <mxPoint x="1645" y="750" as="sourcePoint" />
            <mxPoint x="1805" y="750" as="targetPoint" />
          </mxGeometry>
        </mxCell>
        <mxCell id="mAAy-k8h5P1W6E8aGdol-10" value="" style="endArrow=none;endSize=12;dashed=1;html=1;rounded=0;entryX=1;entryY=0.5;entryDx=0;entryDy=0;exitX=0;exitY=0.5;exitDx=0;exitDy=0;endFill=0;startArrow=open;startFill=0;startSize=12;" parent="1" source="qI7ad0C5QOCOGanBFrG0-23" target="qI7ad0C5QOCOGanBFrG0-38" edge="1">
          <mxGeometry x="-0.125" y="100" width="160" relative="1" as="geometry">
            <mxPoint x="158.5" y="250" as="sourcePoint" />
            <mxPoint x="318.5" y="250" as="targetPoint" />
            <mxPoint as="offset" />
          </mxGeometry>
        </mxCell>
        <mxCell id="mAAy-k8h5P1W6E8aGdol-11" value="&lt;div align=&quot;left&quot;&gt;*&amp;nbsp;&amp;nbsp;&amp;nbsp;&amp;nbsp; + foglaltHelyek {readonly}&lt;br&gt;&lt;/div&gt;" style="text;html=1;strokeColor=none;fillColor=none;align=left;verticalAlign=middle;whiteSpace=wrap;rounded=0;" parent="1" vertex="1">
          <mxGeometry x="1395" y="565" width="170" height="30" as="geometry" />
        </mxCell>
        <mxCell id="mAAy-k8h5P1W6E8aGdol-12" value="&lt;div align=&quot;center&quot;&gt;+ ules&lt;br&gt;&lt;/div&gt;&lt;div align=&quot;center&quot;&gt;{readonly}&lt;/div&gt;" style="text;html=1;strokeColor=none;fillColor=none;align=center;verticalAlign=middle;whiteSpace=wrap;rounded=0;" parent="1" vertex="1">
          <mxGeometry x="1602.5" y="645" width="55" height="40" as="geometry" />
        </mxCell>
        <mxCell id="mAAy-k8h5P1W6E8aGdol-13" value="&lt;div align=&quot;center&quot;&gt;+ ido&lt;br&gt;{readonly}&lt;/div&gt;" style="text;html=1;strokeColor=none;fillColor=none;align=center;verticalAlign=middle;whiteSpace=wrap;rounded=0;" parent="1" vertex="1">
          <mxGeometry x="1595" y="430" width="70" height="30" as="geometry" />
        </mxCell>
        <mxCell id="mAAy-k8h5P1W6E8aGdol-16" value="Színház" style="shape=umlActor;verticalLabelPosition=bottom;verticalAlign=top;html=1;" parent="1" vertex="1">
          <mxGeometry x="1950" y="230" width="30" height="60" as="geometry" />
        </mxCell>
        <mxCell id="mAAy-k8h5P1W6E8aGdol-20" style="rounded=0;orthogonalLoop=1;jettySize=auto;html=1;exitX=0;exitY=0.5;exitDx=0;exitDy=0;endArrow=none;endFill=0;" parent="1" source="mAAy-k8h5P1W6E8aGdol-17" edge="1">
          <mxGeometry relative="1" as="geometry">
            <mxPoint x="1980" y="260" as="targetPoint" />
          </mxGeometry>
        </mxCell>
        <mxCell id="mAAy-k8h5P1W6E8aGdol-23" style="edgeStyle=orthogonalEdgeStyle;rounded=0;orthogonalLoop=1;jettySize=auto;html=1;exitX=0.5;exitY=1;exitDx=0;exitDy=0;endArrow=open;endFill=0;dashed=1;dashPattern=8 8;entryX=0.5;entryY=0;entryDx=0;entryDy=0;" parent="1" source="mAAy-k8h5P1W6E8aGdol-17" target="mAAy-k8h5P1W6E8aGdol-18" edge="1">
          <mxGeometry relative="1" as="geometry">
            <mxPoint x="2140" y="230" as="targetPoint" />
          </mxGeometry>
        </mxCell>
        <mxCell id="mAAy-k8h5P1W6E8aGdol-42" style="rounded=0;orthogonalLoop=1;jettySize=auto;html=1;exitX=1;exitY=0.5;exitDx=0;exitDy=0;entryX=0;entryY=0.5;entryDx=0;entryDy=0;dashed=1;dashPattern=8 8;endArrow=open;endFill=0;" parent="1" source="mAAy-k8h5P1W6E8aGdol-17" target="mAAy-k8h5P1W6E8aGdol-41" edge="1">
          <mxGeometry relative="1" as="geometry" />
        </mxCell>
        <mxCell id="mAAy-k8h5P1W6E8aGdol-44" style="rounded=0;orthogonalLoop=1;jettySize=auto;html=1;exitX=1;exitY=0.5;exitDx=0;exitDy=0;entryX=0;entryY=0.5;entryDx=0;entryDy=0;dashed=1;dashPattern=8 8;endArrow=open;endFill=0;" parent="1" source="mAAy-k8h5P1W6E8aGdol-17" target="mAAy-k8h5P1W6E8aGdol-43" edge="1">
          <mxGeometry relative="1" as="geometry" />
        </mxCell>
        <mxCell id="mAAy-k8h5P1W6E8aGdol-17" value="Vetítőterem megnyitása" style="ellipse;whiteSpace=wrap;html=1;" parent="1" vertex="1">
          <mxGeometry x="2070" y="90" width="140" height="70" as="geometry" />
        </mxCell>
        <mxCell id="mAAy-k8h5P1W6E8aGdol-21" style="rounded=0;orthogonalLoop=1;jettySize=auto;html=1;exitX=0;exitY=0.5;exitDx=0;exitDy=0;endArrow=none;endFill=0;" parent="1" source="mAAy-k8h5P1W6E8aGdol-18" edge="1">
          <mxGeometry relative="1" as="geometry">
            <mxPoint x="1980" y="260" as="targetPoint" />
          </mxGeometry>
        </mxCell>
        <mxCell id="mAAy-k8h5P1W6E8aGdol-32" style="rounded=0;orthogonalLoop=1;jettySize=auto;html=1;exitX=1;exitY=0.5;exitDx=0;exitDy=0;entryX=0;entryY=0.5;entryDx=0;entryDy=0;dashed=1;dashPattern=8 8;endArrow=open;endFill=0;" parent="1" source="mAAy-k8h5P1W6E8aGdol-37" target="mAAy-k8h5P1W6E8aGdol-31" edge="1">
          <mxGeometry relative="1" as="geometry" />
        </mxCell>
        <mxCell id="mAAy-k8h5P1W6E8aGdol-18" value="Filmek eltervezése" style="ellipse;whiteSpace=wrap;html=1;" parent="1" vertex="1">
          <mxGeometry x="2070" y="220" width="140" height="70" as="geometry" />
        </mxCell>
        <mxCell id="mAAy-k8h5P1W6E8aGdol-22" style="rounded=0;orthogonalLoop=1;jettySize=auto;html=1;exitX=0;exitY=0.5;exitDx=0;exitDy=0;endArrow=none;endFill=0;" parent="1" source="mAAy-k8h5P1W6E8aGdol-19" edge="1">
          <mxGeometry relative="1" as="geometry">
            <mxPoint x="1980" y="260" as="targetPoint" />
          </mxGeometry>
        </mxCell>
        <mxCell id="mAAy-k8h5P1W6E8aGdol-56" style="rounded=0;orthogonalLoop=1;jettySize=auto;html=1;exitX=0;exitY=0.5;exitDx=0;exitDy=0;endArrow=none;endFill=0;" parent="1" source="mAAy-k8h5P1W6E8aGdol-19" edge="1">
          <mxGeometry relative="1" as="geometry">
            <mxPoint x="1980" y="710" as="targetPoint" />
          </mxGeometry>
        </mxCell>
        <mxCell id="mAAy-k8h5P1W6E8aGdol-59" style="rounded=0;orthogonalLoop=1;jettySize=auto;html=1;exitX=1;exitY=0.5;exitDx=0;exitDy=0;entryX=0;entryY=0.5;entryDx=0;entryDy=0;endArrow=open;endFill=0;dashed=1;dashPattern=8 8;" parent="1" source="mAAy-k8h5P1W6E8aGdol-19" target="mAAy-k8h5P1W6E8aGdol-58" edge="1">
          <mxGeometry relative="1" as="geometry" />
        </mxCell>
        <mxCell id="mAAy-k8h5P1W6E8aGdol-66" style="edgeStyle=orthogonalEdgeStyle;rounded=0;orthogonalLoop=1;jettySize=auto;html=1;exitX=1;exitY=0;exitDx=0;exitDy=0;entryX=1;entryY=1;entryDx=0;entryDy=0;endArrow=open;endFill=0;dashed=1;dashPattern=8 8;" parent="1" source="mAAy-k8h5P1W6E8aGdol-19" target="mAAy-k8h5P1W6E8aGdol-27" edge="1">
          <mxGeometry relative="1" as="geometry" />
        </mxCell>
        <mxCell id="mAAy-k8h5P1W6E8aGdol-19" value="Jegyek eladása" style="ellipse;whiteSpace=wrap;html=1;" parent="1" vertex="1">
          <mxGeometry x="2070" y="830.21" width="140" height="70" as="geometry" />
        </mxCell>
        <mxCell id="mAAy-k8h5P1W6E8aGdol-25" value="&amp;lt;precedes&amp;gt;" style="text;html=1;strokeColor=none;fillColor=none;align=center;verticalAlign=middle;whiteSpace=wrap;rounded=0;" parent="1" vertex="1">
          <mxGeometry x="2130" y="170" width="100" height="30" as="geometry" />
        </mxCell>
        <mxCell id="mAAy-k8h5P1W6E8aGdol-28" value="" style="edgeStyle=orthogonalEdgeStyle;rounded=0;orthogonalLoop=1;jettySize=auto;html=1;exitX=0.5;exitY=1;exitDx=0;exitDy=0;endArrow=open;endFill=0;dashed=1;dashPattern=8 8;" parent="1" source="mAAy-k8h5P1W6E8aGdol-18" target="mAAy-k8h5P1W6E8aGdol-27" edge="1">
          <mxGeometry relative="1" as="geometry">
            <mxPoint x="2140" y="305" as="sourcePoint" />
            <mxPoint x="2140" y="470" as="targetPoint" />
          </mxGeometry>
        </mxCell>
        <mxCell id="mAAy-k8h5P1W6E8aGdol-30" style="rounded=0;orthogonalLoop=1;jettySize=auto;html=1;exitX=0;exitY=0.5;exitDx=0;exitDy=0;endArrow=none;endFill=0;" parent="1" source="mAAy-k8h5P1W6E8aGdol-27" edge="1">
          <mxGeometry relative="1" as="geometry">
            <mxPoint x="1980" y="260" as="targetPoint" />
          </mxGeometry>
        </mxCell>
        <mxCell id="mAAy-k8h5P1W6E8aGdol-47" style="rounded=0;orthogonalLoop=1;jettySize=auto;html=1;exitX=1;exitY=0.5;exitDx=0;exitDy=0;entryX=0;entryY=0.5;entryDx=0;entryDy=0;dashed=1;dashPattern=8 8;endArrow=open;endFill=0;" parent="1" source="mAAy-k8h5P1W6E8aGdol-27" target="mAAy-k8h5P1W6E8aGdol-46" edge="1">
          <mxGeometry relative="1" as="geometry">
            <mxPoint x="2449.9999999999964" y="485" as="sourcePoint" />
          </mxGeometry>
        </mxCell>
        <mxCell id="mAAy-k8h5P1W6E8aGdol-49" style="rounded=0;orthogonalLoop=1;jettySize=auto;html=1;exitX=1;exitY=0.5;exitDx=0;exitDy=0;entryX=0;entryY=0.5;entryDx=0;entryDy=0;dashed=1;dashPattern=8 8;endArrow=open;endFill=0;" parent="1" source="mAAy-k8h5P1W6E8aGdol-27" target="mAAy-k8h5P1W6E8aGdol-48" edge="1">
          <mxGeometry relative="1" as="geometry">
            <mxPoint x="2449.9999999999964" y="485" as="sourcePoint" />
          </mxGeometry>
        </mxCell>
        <mxCell id="mAAy-k8h5P1W6E8aGdol-53" style="rounded=0;orthogonalLoop=1;jettySize=auto;html=1;exitX=1;exitY=0.5;exitDx=0;exitDy=0;entryX=0;entryY=0.5;entryDx=0;entryDy=0;dashed=1;dashPattern=8 8;endArrow=open;endFill=0;" parent="1" source="mAAy-k8h5P1W6E8aGdol-27" target="mAAy-k8h5P1W6E8aGdol-52" edge="1">
          <mxGeometry relative="1" as="geometry">
            <mxPoint x="2449.9999999999964" y="485" as="sourcePoint" />
          </mxGeometry>
        </mxCell>
        <mxCell id="mAAy-k8h5P1W6E8aGdol-55" style="rounded=0;orthogonalLoop=1;jettySize=auto;html=1;exitX=0;exitY=0.5;exitDx=0;exitDy=0;endArrow=none;endFill=0;" parent="1" source="mAAy-k8h5P1W6E8aGdol-27" edge="1">
          <mxGeometry relative="1" as="geometry">
            <mxPoint x="1980" y="710" as="targetPoint" />
          </mxGeometry>
        </mxCell>
        <mxCell id="mAAy-k8h5P1W6E8aGdol-69" style="rounded=0;orthogonalLoop=1;jettySize=auto;html=1;exitX=1;exitY=1;exitDx=0;exitDy=0;entryX=0;entryY=0.5;entryDx=0;entryDy=0;endArrow=open;endFill=0;dashed=1;dashPattern=8 8;" parent="1" source="mAAy-k8h5P1W6E8aGdol-27" target="mAAy-k8h5P1W6E8aGdol-58" edge="1">
          <mxGeometry relative="1" as="geometry" />
        </mxCell>
        <mxCell id="Cp1J3vhHp7di8gAdqNgf-50" style="edgeStyle=orthogonalEdgeStyle;rounded=0;orthogonalLoop=1;jettySize=auto;html=1;exitX=0;exitY=1;exitDx=0;exitDy=0;entryX=0;entryY=0;entryDx=0;entryDy=0;dashed=1;dashPattern=8 8;endArrow=open;endFill=0;" parent="1" source="mAAy-k8h5P1W6E8aGdol-27" target="mAAy-k8h5P1W6E8aGdol-19" edge="1">
          <mxGeometry relative="1" as="geometry" />
        </mxCell>
        <mxCell id="Cp1J3vhHp7di8gAdqNgf-77" style="rounded=0;orthogonalLoop=1;jettySize=auto;html=1;exitX=1;exitY=0.5;exitDx=0;exitDy=0;entryX=0;entryY=0.5;entryDx=0;entryDy=0;dashed=1;dashPattern=8 8;endArrow=open;endFill=0;" parent="1" source="mAAy-k8h5P1W6E8aGdol-27" target="Cp1J3vhHp7di8gAdqNgf-74" edge="1">
          <mxGeometry relative="1" as="geometry" />
        </mxCell>
        <mxCell id="7cZMRGCg5zAJAYEofahR-9" style="edgeStyle=orthogonalEdgeStyle;rounded=0;orthogonalLoop=1;jettySize=auto;html=1;exitX=0.714;exitY=0.953;exitDx=0;exitDy=0;exitPerimeter=0;entryX=0.708;entryY=0.048;entryDx=0;entryDy=0;entryPerimeter=0;dashed=1;dashPattern=8 8;endArrow=open;endFill=0;" parent="1" source="mAAy-k8h5P1W6E8aGdol-27" target="7cZMRGCg5zAJAYEofahR-7" edge="1">
          <mxGeometry relative="1" as="geometry" />
        </mxCell>
        <mxCell id="mAAy-k8h5P1W6E8aGdol-27" value="Foglalások könyvelése" style="ellipse;whiteSpace=wrap;html=1;" parent="1" vertex="1">
          <mxGeometry x="2070" y="450" width="140" height="70" as="geometry" />
        </mxCell>
        <mxCell id="mAAy-k8h5P1W6E8aGdol-29" value="&amp;lt;precedes&amp;gt;" style="text;html=1;strokeColor=none;fillColor=none;align=center;verticalAlign=middle;whiteSpace=wrap;rounded=0;" parent="1" vertex="1">
          <mxGeometry x="2130" y="360" width="100" height="30" as="geometry" />
        </mxCell>
        <mxCell id="mAAy-k8h5P1W6E8aGdol-31" value="Filmek termekhez rendelése" style="ellipse;whiteSpace=wrap;html=1;" parent="1" vertex="1">
          <mxGeometry x="2550" y="220" width="140" height="70" as="geometry" />
        </mxCell>
        <mxCell id="mAAy-k8h5P1W6E8aGdol-35" value="&amp;lt;include&amp;gt;" style="text;html=1;strokeColor=none;fillColor=none;align=center;verticalAlign=middle;whiteSpace=wrap;rounded=0;" parent="1" vertex="1">
          <mxGeometry x="2210" y="255" width="100" height="30" as="geometry" />
        </mxCell>
        <mxCell id="mAAy-k8h5P1W6E8aGdol-38" value="" style="rounded=0;orthogonalLoop=1;jettySize=auto;html=1;exitX=1;exitY=0.5;exitDx=0;exitDy=0;entryX=0;entryY=0.5;entryDx=0;entryDy=0;dashed=1;dashPattern=8 8;endArrow=open;endFill=0;" parent="1" source="mAAy-k8h5P1W6E8aGdol-18" target="mAAy-k8h5P1W6E8aGdol-37" edge="1">
          <mxGeometry relative="1" as="geometry">
            <mxPoint x="2210" y="255" as="sourcePoint" />
            <mxPoint x="2490" y="255" as="targetPoint" />
          </mxGeometry>
        </mxCell>
        <mxCell id="mAAy-k8h5P1W6E8aGdol-37" value="Filmek beszerzése" style="ellipse;whiteSpace=wrap;html=1;" parent="1" vertex="1">
          <mxGeometry x="2310" y="220" width="140" height="70" as="geometry" />
        </mxCell>
        <mxCell id="mAAy-k8h5P1W6E8aGdol-39" value="&amp;lt;include&amp;gt;" style="text;html=1;strokeColor=none;fillColor=none;align=center;verticalAlign=middle;whiteSpace=wrap;rounded=0;" parent="1" vertex="1">
          <mxGeometry x="2450" y="255" width="100" height="30" as="geometry" />
        </mxCell>
        <mxCell id="mAAy-k8h5P1W6E8aGdol-40" value="&amp;lt;include&amp;gt;" style="text;html=1;strokeColor=none;fillColor=none;align=center;verticalAlign=middle;whiteSpace=wrap;rounded=0;" parent="1" vertex="1">
          <mxGeometry x="2200" y="70" width="100" height="30" as="geometry" />
        </mxCell>
        <mxCell id="mAAy-k8h5P1W6E8aGdol-41" value="Terem alapárának megszabása" style="ellipse;whiteSpace=wrap;html=1;" parent="1" vertex="1">
          <mxGeometry x="2310" y="40" width="140" height="70" as="geometry" />
        </mxCell>
        <mxCell id="mAAy-k8h5P1W6E8aGdol-43" value="Terem sor- és oszlopszámának beállítása" style="ellipse;whiteSpace=wrap;html=1;" parent="1" vertex="1">
          <mxGeometry x="2310" y="130" width="140" height="70" as="geometry" />
        </mxCell>
        <mxCell id="mAAy-k8h5P1W6E8aGdol-45" value="&amp;lt;include&amp;gt;" style="text;html=1;strokeColor=none;fillColor=none;align=center;verticalAlign=middle;whiteSpace=wrap;rounded=0;" parent="1" vertex="1">
          <mxGeometry x="2200" y="140" width="100" height="30" as="geometry" />
        </mxCell>
        <mxCell id="Cp1J3vhHp7di8gAdqNgf-75" style="edgeStyle=orthogonalEdgeStyle;rounded=0;orthogonalLoop=1;jettySize=auto;html=1;exitX=0.5;exitY=1;exitDx=0;exitDy=0;entryX=0.5;entryY=0;entryDx=0;entryDy=0;dashed=1;dashPattern=8 8;endArrow=open;endFill=0;endSize=6;" parent="1" source="mAAy-k8h5P1W6E8aGdol-46" target="Cp1J3vhHp7di8gAdqNgf-74" edge="1">
          <mxGeometry relative="1" as="geometry" />
        </mxCell>
        <mxCell id="mAAy-k8h5P1W6E8aGdol-46" value="Foglalás nevének beállítása" style="ellipse;whiteSpace=wrap;html=1;" parent="1" vertex="1">
          <mxGeometry x="2550" y="490" width="140" height="70" as="geometry" />
        </mxCell>
        <mxCell id="Cp1J3vhHp7di8gAdqNgf-46" style="edgeStyle=orthogonalEdgeStyle;rounded=0;orthogonalLoop=1;jettySize=auto;html=1;exitX=0.5;exitY=1;exitDx=0;exitDy=0;entryX=0.5;entryY=0;entryDx=0;entryDy=0;endArrow=open;endFill=0;dashed=1;dashPattern=8 8;" parent="1" source="mAAy-k8h5P1W6E8aGdol-48" target="mAAy-k8h5P1W6E8aGdol-52" edge="1">
          <mxGeometry relative="1" as="geometry" />
        </mxCell>
        <mxCell id="mAAy-k8h5P1W6E8aGdol-48" value="Ülés lefoglalása" style="ellipse;whiteSpace=wrap;html=1;" parent="1" vertex="1">
          <mxGeometry x="2550" y="310" width="140" height="70" as="geometry" />
        </mxCell>
        <mxCell id="mAAy-k8h5P1W6E8aGdol-50" value="&amp;lt;include&amp;gt;" style="text;html=1;strokeColor=none;fillColor=none;align=center;verticalAlign=middle;whiteSpace=wrap;rounded=0;" parent="1" vertex="1">
          <mxGeometry x="2360" y="406.25" width="100" height="30" as="geometry" />
        </mxCell>
        <mxCell id="mAAy-k8h5P1W6E8aGdol-51" value="&amp;lt;include&amp;gt;" style="text;html=1;strokeColor=none;fillColor=none;align=center;verticalAlign=middle;whiteSpace=wrap;rounded=0;" parent="1" vertex="1">
          <mxGeometry x="2350" y="455" width="100" height="30" as="geometry" />
        </mxCell>
        <mxCell id="mAAy-k8h5P1W6E8aGdol-52" value="Ülés állapotának lejegyzése" style="ellipse;whiteSpace=wrap;html=1;" parent="1" vertex="1">
          <mxGeometry x="2550" y="400" width="140" height="70" as="geometry" />
        </mxCell>
        <mxCell id="mAAy-k8h5P1W6E8aGdol-54" value="Személy" style="shape=umlActor;verticalLabelPosition=bottom;verticalAlign=top;html=1;" parent="1" vertex="1">
          <mxGeometry x="1950" y="685" width="30" height="60" as="geometry" />
        </mxCell>
        <mxCell id="mAAy-k8h5P1W6E8aGdol-57" value="&amp;lt;include&amp;gt;" style="text;html=1;strokeColor=none;fillColor=none;align=center;verticalAlign=middle;whiteSpace=wrap;rounded=0;" parent="1" vertex="1">
          <mxGeometry x="2350" y="480" width="100" height="30" as="geometry" />
        </mxCell>
        <mxCell id="mAAy-k8h5P1W6E8aGdol-62" style="rounded=0;orthogonalLoop=1;jettySize=auto;html=1;exitX=1;exitY=0.5;exitDx=0;exitDy=0;entryX=0;entryY=0.5;entryDx=0;entryDy=0;dashed=1;dashPattern=8 8;endArrow=open;endFill=0;" parent="1" source="mAAy-k8h5P1W6E8aGdol-19" target="mAAy-k8h5P1W6E8aGdol-61" edge="1">
          <mxGeometry relative="1" as="geometry" />
        </mxCell>
        <mxCell id="Cp1J3vhHp7di8gAdqNgf-44" style="rounded=0;orthogonalLoop=1;jettySize=auto;html=1;exitX=1;exitY=0.5;exitDx=0;exitDy=0;entryX=0;entryY=0.5;entryDx=0;entryDy=0;dashed=1;dashPattern=8 8;endArrow=open;endFill=0;" parent="1" source="mAAy-k8h5P1W6E8aGdol-58" target="mAAy-k8h5P1W6E8aGdol-61" edge="1">
          <mxGeometry relative="1" as="geometry" />
        </mxCell>
        <mxCell id="7cZMRGCg5zAJAYEofahR-13" style="rounded=0;orthogonalLoop=1;jettySize=auto;html=1;exitX=1;exitY=0.5;exitDx=0;exitDy=0;entryX=0;entryY=0.5;entryDx=0;entryDy=0;dashed=1;dashPattern=8 8;endArrow=open;endFill=0;" parent="1" source="mAAy-k8h5P1W6E8aGdol-58" target="7cZMRGCg5zAJAYEofahR-12" edge="1">
          <mxGeometry relative="1" as="geometry" />
        </mxCell>
        <mxCell id="mAAy-k8h5P1W6E8aGdol-58" value="Foglalás ellenőrzése" style="ellipse;whiteSpace=wrap;html=1;" parent="1" vertex="1">
          <mxGeometry x="2310" y="750.21" width="140" height="70" as="geometry" />
        </mxCell>
        <mxCell id="mAAy-k8h5P1W6E8aGdol-60" value="&amp;lt;precedes&amp;gt;" style="text;html=1;strokeColor=none;fillColor=none;align=center;verticalAlign=middle;whiteSpace=wrap;rounded=0;" parent="1" vertex="1">
          <mxGeometry x="2328.63" y="860" width="100" height="30" as="geometry" />
        </mxCell>
        <mxCell id="mAAy-k8h5P1W6E8aGdol-61" value="Fizetés" style="ellipse;whiteSpace=wrap;html=1;" parent="1" vertex="1">
          <mxGeometry x="2550" y="830" width="140" height="70" as="geometry" />
        </mxCell>
        <mxCell id="mAAy-k8h5P1W6E8aGdol-64" value="&amp;lt;include&amp;gt;" style="text;html=1;strokeColor=none;fillColor=none;align=center;verticalAlign=middle;whiteSpace=wrap;rounded=0;" parent="1" vertex="1">
          <mxGeometry x="2193.63" y="745" width="100" height="30" as="geometry" />
        </mxCell>
        <mxCell id="mAAy-k8h5P1W6E8aGdol-65" value="&amp;lt;precedes&amp;gt;" style="text;html=1;strokeColor=none;fillColor=none;align=center;verticalAlign=middle;whiteSpace=wrap;rounded=0;" parent="1" vertex="1">
          <mxGeometry x="2480" y="740" width="100" height="30" as="geometry" />
        </mxCell>
        <mxCell id="mAAy-k8h5P1W6E8aGdol-70" value="&amp;lt;precedes&amp;gt;" style="text;html=1;strokeColor=none;fillColor=none;align=center;verticalAlign=middle;whiteSpace=wrap;rounded=0;" parent="1" vertex="1">
          <mxGeometry x="2320" y="680" width="100" height="30" as="geometry" />
        </mxCell>
        <mxCell id="mAAy-k8h5P1W6E8aGdol-71" value="&amp;lt;precedes&amp;gt;" style="text;html=1;strokeColor=none;fillColor=none;align=center;verticalAlign=middle;whiteSpace=wrap;rounded=0;" parent="1" vertex="1">
          <mxGeometry x="2090" y="570" width="100" height="30" as="geometry" />
        </mxCell>
        <mxCell id="mAAy-k8h5P1W6E8aGdol-73" value="&lt;font style=&quot;font-size: 36px;&quot;&gt;Használati eset diagram&lt;br&gt;&lt;/font&gt;" style="rounded=0;whiteSpace=wrap;html=1;" parent="1" vertex="1">
          <mxGeometry x="2140" y="-60" width="480" height="60" as="geometry" />
        </mxCell>
        <mxCell id="mAAy-k8h5P1W6E8aGdol-74" value="&lt;font style=&quot;font-size: 36px;&quot;&gt;Osztály diagram&lt;br&gt;&lt;/font&gt;" style="rounded=0;whiteSpace=wrap;html=1;" parent="1" vertex="1">
          <mxGeometry x="555" y="-60" width="480" height="60" as="geometry" />
        </mxCell>
        <mxCell id="mAAy-k8h5P1W6E8aGdol-75" value="" style="endArrow=diamondThin;endFill=1;endSize=24;html=1;rounded=0;entryX=0.5;entryY=1;entryDx=0;entryDy=0;exitX=0.5;exitY=0;exitDx=0;exitDy=0;" parent="1" source="qI7ad0C5QOCOGanBFrG0-22" target="qI7ad0C5QOCOGanBFrG0-23" edge="1">
          <mxGeometry width="160" relative="1" as="geometry">
            <mxPoint x="308.5" y="270" as="sourcePoint" />
            <mxPoint x="468.5" y="270" as="targetPoint" />
          </mxGeometry>
        </mxCell>
        <mxCell id="mAAy-k8h5P1W6E8aGdol-76" value="&lt;font style=&quot;font-size: 36px;&quot;&gt;Objektum&lt;/font&gt;&lt;font style=&quot;font-size: 36px;&quot;&gt; diagram&lt;br&gt;&lt;/font&gt;" style="rounded=0;whiteSpace=wrap;html=1;" parent="1" vertex="1">
          <mxGeometry x="2108.63" y="1010" width="480" height="60" as="geometry" />
        </mxCell>
        <mxCell id="Cp1J3vhHp7di8gAdqNgf-82" style="edgeStyle=orthogonalEdgeStyle;rounded=0;orthogonalLoop=1;jettySize=auto;html=1;exitX=1;exitY=0.5;exitDx=0;exitDy=0;entryX=0;entryY=0.5;entryDx=0;entryDy=0;startArrow=diamondThin;startFill=0;startSize=24;endArrow=none;endFill=0;" parent="1" source="mAAy-k8h5P1W6E8aGdol-78" target="Cp1J3vhHp7di8gAdqNgf-79" edge="1">
          <mxGeometry relative="1" as="geometry" />
        </mxCell>
        <mxCell id="Cp1J3vhHp7di8gAdqNgf-83" style="edgeStyle=orthogonalEdgeStyle;rounded=0;orthogonalLoop=1;jettySize=auto;html=1;exitX=1;exitY=0.5;exitDx=0;exitDy=0;entryX=0;entryY=0.5;entryDx=0;entryDy=0;startArrow=diamondThin;startFill=0;startSize=24;endArrow=none;endFill=0;" parent="1" source="mAAy-k8h5P1W6E8aGdol-78" target="Cp1J3vhHp7di8gAdqNgf-80" edge="1">
          <mxGeometry relative="1" as="geometry" />
        </mxCell>
        <mxCell id="mAAy-k8h5P1W6E8aGdol-78" value="&lt;p style=&quot;margin:0px;margin-top:4px;text-align:center;text-decoration:underline;&quot;&gt;&lt;b&gt;ELTE:Szinhaz&lt;/b&gt;&lt;/p&gt;&lt;hr&gt;" style="verticalAlign=top;align=left;overflow=fill;fontSize=12;fontFamily=Helvetica;html=1;whiteSpace=wrap;" parent="1" vertex="1">
          <mxGeometry x="2028.63" y="1184" width="160" height="40" as="geometry" />
        </mxCell>
        <mxCell id="Cp1J3vhHp7di8gAdqNgf-14" style="rounded=0;orthogonalLoop=1;jettySize=auto;html=1;exitX=1;exitY=0.5;exitDx=0;exitDy=0;entryX=0;entryY=0.5;entryDx=0;entryDy=0;endArrow=open;endFill=0;endSize=12;edgeStyle=elbowEdgeStyle;" parent="1" source="mAAy-k8h5P1W6E8aGdol-79" target="Cp1J3vhHp7di8gAdqNgf-12" edge="1">
          <mxGeometry relative="1" as="geometry">
            <Array as="points">
              <mxPoint x="2273.63" y="1489" />
            </Array>
          </mxGeometry>
        </mxCell>
        <mxCell id="Cp1J3vhHp7di8gAdqNgf-15" style="rounded=0;orthogonalLoop=1;jettySize=auto;html=1;exitX=1;exitY=0.5;exitDx=0;exitDy=0;entryX=0;entryY=0.5;entryDx=0;entryDy=0;endArrow=open;endFill=0;endSize=12;edgeStyle=elbowEdgeStyle;" parent="1" source="mAAy-k8h5P1W6E8aGdol-79" target="Cp1J3vhHp7di8gAdqNgf-13" edge="1">
          <mxGeometry relative="1" as="geometry">
            <Array as="points">
              <mxPoint x="2273.63" y="1419" />
            </Array>
          </mxGeometry>
        </mxCell>
        <mxCell id="mAAy-k8h5P1W6E8aGdol-79" value="&lt;p style=&quot;margin:0px;margin-top:4px;text-align:center;text-decoration:underline;&quot;&gt;&lt;b&gt;Bolyai:NagyTerem&lt;/b&gt;&lt;br&gt;&lt;/p&gt;&lt;hr&gt;&lt;p style=&quot;margin:0px;margin-left:8px;&quot;&gt;alapar = 2000&lt;br&gt;sorokSzama = 10&lt;br&gt;&lt;/p&gt;&lt;p style=&quot;margin:0px;margin-left:8px;&quot;&gt;ulesSorban = 10&lt;/p&gt;" style="verticalAlign=top;align=left;overflow=fill;fontSize=12;fontFamily=Helvetica;html=1;whiteSpace=wrap;" parent="1" vertex="1">
          <mxGeometry x="2028.63" y="1409" width="160" height="90" as="geometry" />
        </mxCell>
        <mxCell id="mAAy-k8h5P1W6E8aGdol-80" value="" style="endArrow=diamondThin;endFill=1;endSize=24;html=1;rounded=0;entryX=0.5;entryY=1;entryDx=0;entryDy=0;exitX=0.5;exitY=0;exitDx=0;exitDy=0;" parent="1" source="mAAy-k8h5P1W6E8aGdol-79" target="mAAy-k8h5P1W6E8aGdol-78" edge="1">
          <mxGeometry width="160" relative="1" as="geometry">
            <mxPoint x="2233.63" y="1379" as="sourcePoint" />
            <mxPoint x="2053.63" y="1329" as="targetPoint" />
          </mxGeometry>
        </mxCell>
        <mxCell id="Cp1J3vhHp7di8gAdqNgf-1" value="&lt;p style=&quot;margin:0px;margin-top:4px;text-align:center;text-decoration:underline;&quot;&gt;&lt;b&gt;D:Szemely&lt;/b&gt;&lt;/p&gt;&lt;hr&gt;&lt;p style=&quot;margin:0px;margin-left:8px;&quot;&gt;nev = &quot;Mekk Elek&quot;&lt;/p&gt;&lt;p style=&quot;margin:0px;margin-left:8px;&quot;&gt;penz = 2000&lt;br&gt;&lt;/p&gt;" style="verticalAlign=top;align=left;overflow=fill;fontSize=12;fontFamily=Helvetica;html=1;whiteSpace=wrap;" parent="1" vertex="1">
          <mxGeometry x="1743.63" y="1104" width="160" height="70" as="geometry" />
        </mxCell>
        <mxCell id="Cp1J3vhHp7di8gAdqNgf-2" value="&lt;p style=&quot;margin:0px;margin-top:4px;text-align:center;text-decoration:underline;&quot;&gt;&lt;b&gt;B:Szemely&lt;/b&gt;&lt;br&gt;&lt;/p&gt;&lt;hr&gt;&lt;p style=&quot;margin:0px;margin-left:8px;&quot;&gt;nev = &quot;Vizi Gizi&quot;&lt;/p&gt;&lt;p style=&quot;margin:0px;margin-left:8px;&quot;&gt;penz = 150&lt;br&gt;&lt;/p&gt;" style="verticalAlign=top;align=left;overflow=fill;fontSize=12;fontFamily=Helvetica;html=1;whiteSpace=wrap;" parent="1" vertex="1">
          <mxGeometry x="1743.63" y="1234" width="160" height="70" as="geometry" />
        </mxCell>
        <mxCell id="Cp1J3vhHp7di8gAdqNgf-6" value="" style="endArrow=open;endFill=0;endSize=12;html=1;rounded=0;exitX=1;exitY=0.5;exitDx=0;exitDy=0;entryX=0;entryY=0.5;entryDx=0;entryDy=0;dashed=1;startSize=12;startArrow=none;startFill=0;" parent="1" source="Cp1J3vhHp7di8gAdqNgf-2" target="mAAy-k8h5P1W6E8aGdol-78" edge="1">
          <mxGeometry width="160" relative="1" as="geometry">
            <mxPoint x="1833.63" y="1364" as="sourcePoint" />
            <mxPoint x="1993.63" y="1364" as="targetPoint" />
          </mxGeometry>
        </mxCell>
        <mxCell id="Cp1J3vhHp7di8gAdqNgf-7" value="" style="endArrow=open;endFill=0;endSize=12;html=1;rounded=0;exitX=1;exitY=0.5;exitDx=0;exitDy=0;entryX=0;entryY=0.5;entryDx=0;entryDy=0;dashed=1;startSize=12;startArrow=none;startFill=0;" parent="1" source="Cp1J3vhHp7di8gAdqNgf-1" target="mAAy-k8h5P1W6E8aGdol-78" edge="1">
          <mxGeometry width="160" relative="1" as="geometry">
            <mxPoint x="1973.63" y="1114" as="sourcePoint" />
            <mxPoint x="2133.63" y="1114" as="targetPoint" />
          </mxGeometry>
        </mxCell>
        <mxCell id="Cp1J3vhHp7di8gAdqNgf-8" value="&lt;div align=&quot;left&quot;&gt;*&lt;br&gt;&lt;/div&gt;" style="text;html=1;strokeColor=none;fillColor=none;align=left;verticalAlign=middle;whiteSpace=wrap;rounded=0;" parent="1" vertex="1">
          <mxGeometry x="188.5" y="100" width="20" height="30" as="geometry" />
        </mxCell>
        <mxCell id="Cp1J3vhHp7di8gAdqNgf-11" value="&lt;div align=&quot;right&quot;&gt;*&lt;br&gt;&lt;/div&gt;" style="text;html=1;strokeColor=none;fillColor=none;align=right;verticalAlign=middle;whiteSpace=wrap;rounded=0;" parent="1" vertex="1">
          <mxGeometry x="233.5" y="100" width="20" height="30" as="geometry" />
        </mxCell>
        <mxCell id="Cp1J3vhHp7di8gAdqNgf-18" style="rounded=0;orthogonalLoop=1;jettySize=auto;html=1;exitX=1;exitY=0.25;exitDx=0;exitDy=0;entryX=0;entryY=0.25;entryDx=0;entryDy=0;endSize=12;endArrow=none;endFill=0;startSize=24;startArrow=diamondThin;startFill=1;" parent="1" source="Cp1J3vhHp7di8gAdqNgf-12" target="Cp1J3vhHp7di8gAdqNgf-17" edge="1">
          <mxGeometry relative="1" as="geometry" />
        </mxCell>
        <mxCell id="Cp1J3vhHp7di8gAdqNgf-12" value="&lt;p style=&quot;margin:0px;margin-top:4px;text-align:center;text-decoration:underline;&quot;&gt;&lt;b&gt;FD:Film&lt;/b&gt;&lt;br&gt;&lt;/p&gt;&lt;hr&gt;&lt;p style=&quot;margin:0px;margin-left:8px;&quot;&gt;cim = &quot;Forest Gump&quot;&lt;/p&gt;&lt;p style=&quot;margin:0px;margin-left:8px;&quot;&gt;maxHely = 100&lt;/p&gt;" style="verticalAlign=top;align=left;overflow=fill;fontSize=12;fontFamily=Helvetica;html=1;whiteSpace=wrap;" parent="1" vertex="1">
          <mxGeometry x="2313.63" y="1479" width="160" height="71" as="geometry" />
        </mxCell>
        <mxCell id="Cp1J3vhHp7di8gAdqNgf-19" style="rounded=0;orthogonalLoop=1;jettySize=auto;html=1;exitX=1;exitY=0.75;exitDx=0;exitDy=0;entryX=0;entryY=0.75;entryDx=0;entryDy=0;endArrow=none;endFill=0;endSize=12;startArrow=diamondThin;startFill=1;targetPerimeterSpacing=0;startSize=24;" parent="1" source="Cp1J3vhHp7di8gAdqNgf-13" target="Cp1J3vhHp7di8gAdqNgf-16" edge="1">
          <mxGeometry relative="1" as="geometry" />
        </mxCell>
        <mxCell id="Cp1J3vhHp7di8gAdqNgf-71" style="edgeStyle=orthogonalEdgeStyle;rounded=0;orthogonalLoop=1;jettySize=auto;html=1;exitX=1;exitY=0.25;exitDx=0;exitDy=0;entryX=0;entryY=0.5;entryDx=0;entryDy=0;startArrow=diamondThin;startFill=0;endArrow=none;endFill=0;endSize=6;startSize=24;" parent="1" source="Cp1J3vhHp7di8gAdqNgf-13" target="Cp1J3vhHp7di8gAdqNgf-24" edge="1">
          <mxGeometry relative="1" as="geometry">
            <Array as="points">
              <mxPoint x="2593.63" y="1387" />
              <mxPoint x="2593.63" y="1125" />
            </Array>
          </mxGeometry>
        </mxCell>
        <mxCell id="Cp1J3vhHp7di8gAdqNgf-72" style="edgeStyle=orthogonalEdgeStyle;rounded=0;orthogonalLoop=1;jettySize=auto;html=1;exitX=1;exitY=0.25;exitDx=0;exitDy=0;entryX=0;entryY=0.5;entryDx=0;entryDy=0;startArrow=diamondThin;startFill=0;endArrow=none;endFill=0;endSize=6;startSize=24;" parent="1" source="Cp1J3vhHp7di8gAdqNgf-13" target="Cp1J3vhHp7di8gAdqNgf-25" edge="1">
          <mxGeometry relative="1" as="geometry">
            <Array as="points">
              <mxPoint x="2593.63" y="1387" />
              <mxPoint x="2593.63" y="1269" />
            </Array>
          </mxGeometry>
        </mxCell>
        <mxCell id="Cp1J3vhHp7di8gAdqNgf-13" value="&lt;p style=&quot;margin:0px;margin-top:4px;text-align:center;text-decoration:underline;&quot;&gt;&lt;b&gt;MR:Film&lt;/b&gt;&lt;/p&gt;&lt;hr&gt;&lt;p style=&quot;margin:0px;margin-left:8px;&quot;&gt;cim = &quot;Maugli&quot;&lt;/p&gt;&lt;p style=&quot;margin:0px;margin-left:8px;&quot;&gt;maxHely = 100&lt;br&gt;&lt;/p&gt;" style="verticalAlign=top;align=left;overflow=fill;fontSize=12;fontFamily=Helvetica;html=1;whiteSpace=wrap;" parent="1" vertex="1">
          <mxGeometry x="2313.63" y="1369" width="160" height="71" as="geometry" />
        </mxCell>
        <mxCell id="Cp1J3vhHp7di8gAdqNgf-16" value="&lt;p style=&quot;margin:0px;margin-top:4px;text-align:center;text-decoration:underline;&quot;&gt;&lt;b&gt;Reggel:Ido&lt;/b&gt;&lt;br&gt;&lt;/p&gt;&lt;hr&gt;&lt;p style=&quot;margin:0px;margin-left:8px;&quot;&gt;kezdet = 8:15&lt;/p&gt;&lt;p style=&quot;margin:0px;margin-left:8px;&quot;&gt;veg = 11:00&lt;br&gt;&lt;/p&gt;" style="verticalAlign=top;align=left;overflow=fill;fontSize=12;fontFamily=Helvetica;html=1;whiteSpace=wrap;" parent="1" vertex="1">
          <mxGeometry x="2613.63" y="1370" width="160" height="70" as="geometry" />
        </mxCell>
        <mxCell id="Cp1J3vhHp7di8gAdqNgf-17" value="&lt;p style=&quot;margin:0px;margin-top:4px;text-align:center;text-decoration:underline;&quot;&gt;&lt;b&gt;Delutan:Ido&lt;/b&gt;&lt;br&gt;&lt;/p&gt;&lt;hr&gt;&lt;p style=&quot;margin:0px;margin-left:8px;&quot;&gt;kezdet = 13:15&lt;br&gt;&lt;/p&gt;&lt;p style=&quot;margin:0px;margin-left:8px;&quot;&gt;veg = 16:00&lt;br&gt;&lt;/p&gt;" style="verticalAlign=top;align=left;overflow=fill;fontSize=12;fontFamily=Helvetica;html=1;whiteSpace=wrap;" parent="1" vertex="1">
          <mxGeometry x="2613.63" y="1479" width="160" height="70" as="geometry" />
        </mxCell>
        <mxCell id="Cp1J3vhHp7di8gAdqNgf-20" value="&lt;div align=&quot;left&quot;&gt;vetitotermek&lt;br&gt;&lt;/div&gt;" style="text;html=1;strokeColor=none;fillColor=none;align=left;verticalAlign=middle;whiteSpace=wrap;rounded=0;" parent="1" vertex="1">
          <mxGeometry x="2108.63" y="1384" width="90" height="30" as="geometry" />
        </mxCell>
        <mxCell id="Cp1J3vhHp7di8gAdqNgf-21" value="ido" style="text;html=1;strokeColor=none;fillColor=none;align=left;verticalAlign=middle;whiteSpace=wrap;rounded=0;" parent="1" vertex="1">
          <mxGeometry x="2583.63" y="1419" width="30" height="21" as="geometry" />
        </mxCell>
        <mxCell id="Cp1J3vhHp7di8gAdqNgf-22" value="ido" style="text;html=1;strokeColor=none;fillColor=none;align=left;verticalAlign=middle;whiteSpace=wrap;rounded=0;" parent="1" vertex="1">
          <mxGeometry x="2583.63" y="1490" width="30" height="30" as="geometry" />
        </mxCell>
        <mxCell id="Cp1J3vhHp7di8gAdqNgf-23" value="&lt;div align=&quot;left&quot;&gt;eloadasok&lt;br&gt;&lt;/div&gt;" style="text;html=1;strokeColor=none;fillColor=none;align=left;verticalAlign=middle;whiteSpace=wrap;rounded=0;" parent="1" vertex="1">
          <mxGeometry x="2211.13" y="1450" width="70" height="29" as="geometry" />
        </mxCell>
        <mxCell id="Cp1J3vhHp7di8gAdqNgf-31" style="edgeStyle=orthogonalEdgeStyle;rounded=0;orthogonalLoop=1;jettySize=auto;html=1;exitX=1;exitY=0.5;exitDx=0;exitDy=0;entryX=0;entryY=0.5;entryDx=0;entryDy=0;startSize=24;startArrow=diamondThin;startFill=1;endArrow=none;endFill=0;" parent="1" source="Cp1J3vhHp7di8gAdqNgf-24" target="Cp1J3vhHp7di8gAdqNgf-29" edge="1">
          <mxGeometry relative="1" as="geometry" />
        </mxCell>
        <mxCell id="Cp1J3vhHp7di8gAdqNgf-24" value="&lt;p style=&quot;margin:0px;margin-top:4px;text-align:center;text-decoration:underline;&quot;&gt;&lt;b&gt;:Foglalas&lt;/b&gt;&lt;/p&gt;&lt;hr&gt;&lt;p style=&quot;margin:0px;margin-left:8px;&quot;&gt;allapot = FOGLALT&lt;/p&gt;&lt;p style=&quot;margin:0px;margin-left:8px;&quot;&gt;nev = &quot;Mekk Elek&quot;&lt;/p&gt;&lt;p style=&quot;margin:0px;margin-left:8px;&quot;&gt;tipus = NYUGDIJAS&lt;br&gt;&lt;/p&gt;" style="verticalAlign=top;align=left;overflow=fill;fontSize=12;fontFamily=Helvetica;html=1;whiteSpace=wrap;" parent="1" vertex="1">
          <mxGeometry x="2613.63" y="1080" width="160" height="90" as="geometry" />
        </mxCell>
        <mxCell id="Cp1J3vhHp7di8gAdqNgf-32" style="edgeStyle=orthogonalEdgeStyle;rounded=0;orthogonalLoop=1;jettySize=auto;html=1;exitX=1;exitY=0.5;exitDx=0;exitDy=0;entryX=0;entryY=0.5;entryDx=0;entryDy=0;startSize=24;startArrow=diamondThin;startFill=1;endArrow=none;endFill=0;" parent="1" source="Cp1J3vhHp7di8gAdqNgf-25" target="Cp1J3vhHp7di8gAdqNgf-30" edge="1">
          <mxGeometry relative="1" as="geometry" />
        </mxCell>
        <mxCell id="Cp1J3vhHp7di8gAdqNgf-25" value="&lt;p style=&quot;margin:0px;margin-top:4px;text-align:center;text-decoration:underline;&quot;&gt;&lt;b&gt;:Foglalas&lt;/b&gt;&lt;/p&gt;&lt;hr&gt;&lt;p style=&quot;margin:0px;margin-left:8px;&quot;&gt;allapot = FOGLALT&lt;/p&gt;&lt;p style=&quot;margin:0px;margin-left:8px;&quot;&gt;nev = &quot;Mekk Elek&quot;&lt;/p&gt;&lt;p style=&quot;margin:0px;margin-left:8px;&quot;&gt;tipus = GYEREK&lt;/p&gt;" style="verticalAlign=top;align=left;overflow=fill;fontSize=12;fontFamily=Helvetica;html=1;whiteSpace=wrap;" parent="1" vertex="1">
          <mxGeometry x="2613.63" y="1224" width="160" height="90" as="geometry" />
        </mxCell>
        <mxCell id="Cp1J3vhHp7di8gAdqNgf-28" value="foglaltHelyek" style="text;html=1;strokeColor=none;fillColor=none;align=left;verticalAlign=middle;whiteSpace=wrap;rounded=0;" parent="1" vertex="1">
          <mxGeometry x="2523.63" y="1379" width="70" height="30" as="geometry" />
        </mxCell>
        <mxCell id="Cp1J3vhHp7di8gAdqNgf-29" value="&lt;p style=&quot;margin:0px;margin-top:4px;text-align:center;text-decoration:underline;&quot;&gt;&lt;b&gt;:Ules&lt;/b&gt;&lt;/p&gt;&lt;hr&gt;&lt;p style=&quot;margin:0px;margin-left:8px;&quot;&gt;sor = &#39;A&#39;&lt;/p&gt;&lt;p style=&quot;margin:0px;margin-left:8px;&quot;&gt;szam = 1&lt;br&gt;&lt;/p&gt;" style="verticalAlign=top;align=left;overflow=fill;fontSize=12;fontFamily=Helvetica;html=1;whiteSpace=wrap;" parent="1" vertex="1">
          <mxGeometry x="2873.63" y="1090" width="160" height="70" as="geometry" />
        </mxCell>
        <mxCell id="Cp1J3vhHp7di8gAdqNgf-30" value="&lt;p style=&quot;margin:0px;margin-top:4px;text-align:center;text-decoration:underline;&quot;&gt;&lt;b&gt;:Ules&lt;/b&gt;&lt;/p&gt;&lt;hr&gt;&lt;p style=&quot;margin:0px;margin-left:8px;&quot;&gt;sor = &#39;A&#39;&lt;/p&gt;&lt;p style=&quot;margin:0px;margin-left:8px;&quot;&gt;szam = 2&lt;br&gt;&lt;/p&gt;" style="verticalAlign=top;align=left;overflow=fill;fontSize=12;fontFamily=Helvetica;html=1;whiteSpace=wrap;" parent="1" vertex="1">
          <mxGeometry x="2873.63" y="1234" width="160" height="70" as="geometry" />
        </mxCell>
        <mxCell id="Cp1J3vhHp7di8gAdqNgf-33" value="&lt;div align=&quot;left&quot;&gt;ules&lt;br&gt;&lt;/div&gt;" style="text;html=1;strokeColor=none;fillColor=none;align=left;verticalAlign=middle;whiteSpace=wrap;rounded=0;" parent="1" vertex="1">
          <mxGeometry x="2843.63" y="1120" width="55" height="40" as="geometry" />
        </mxCell>
        <mxCell id="Cp1J3vhHp7di8gAdqNgf-34" value="&lt;div align=&quot;left&quot;&gt;ules&lt;br&gt;&lt;/div&gt;" style="text;html=1;strokeColor=none;fillColor=none;align=left;verticalAlign=middle;whiteSpace=wrap;rounded=0;" parent="1" vertex="1">
          <mxGeometry x="2843.63" y="1259" width="55" height="40" as="geometry" />
        </mxCell>
        <mxCell id="Cp1J3vhHp7di8gAdqNgf-35" value="&lt;p style=&quot;margin:0px;margin-top:4px;text-align:center;text-decoration:underline;&quot;&gt;&lt;b&gt;:Foglalas&lt;/b&gt;&lt;/p&gt;&lt;hr&gt;&lt;p style=&quot;margin:0px;margin-left:8px;&quot;&gt;allapot = ELADOTT&lt;/p&gt;&lt;p style=&quot;margin:0px;margin-left:8px;&quot;&gt;nev = &quot;Vizi Gizi&quot;&lt;/p&gt;&lt;p style=&quot;margin:0px;margin-left:8px;&quot;&gt;tipus = GYEREK&lt;br&gt;&lt;/p&gt;" style="verticalAlign=top;align=left;overflow=fill;fontSize=12;fontFamily=Helvetica;html=1;whiteSpace=wrap;" parent="1" vertex="1">
          <mxGeometry x="2613.63" y="1570" width="160" height="90" as="geometry" />
        </mxCell>
        <mxCell id="Cp1J3vhHp7di8gAdqNgf-36" style="rounded=0;orthogonalLoop=1;jettySize=auto;html=1;entryX=0;entryY=0.5;entryDx=0;entryDy=0;endSize=6;startSize=24;startArrow=diamondThin;startFill=0;endArrow=none;endFill=0;exitX=1;exitY=0.75;exitDx=0;exitDy=0;edgeStyle=elbowEdgeStyle;" parent="1" source="Cp1J3vhHp7di8gAdqNgf-12" target="Cp1J3vhHp7di8gAdqNgf-35" edge="1">
          <mxGeometry relative="1" as="geometry">
            <mxPoint x="2413.63" y="1790" as="sourcePoint" />
            <mxPoint x="2543.63" y="1600" as="targetPoint" />
            <Array as="points">
              <mxPoint x="2593.63" y="1570" />
            </Array>
          </mxGeometry>
        </mxCell>
        <mxCell id="Cp1J3vhHp7di8gAdqNgf-37" value="&lt;div align=&quot;right&quot;&gt;foglaltHelyek&lt;br&gt;&lt;/div&gt;" style="text;html=1;strokeColor=none;fillColor=none;align=left;verticalAlign=middle;whiteSpace=wrap;rounded=0;" parent="1" vertex="1">
          <mxGeometry x="2523.63" y="1530" width="70" height="20" as="geometry" />
        </mxCell>
        <mxCell id="Cp1J3vhHp7di8gAdqNgf-38" style="edgeStyle=orthogonalEdgeStyle;rounded=0;orthogonalLoop=1;jettySize=auto;html=1;exitX=1;exitY=0.5;exitDx=0;exitDy=0;entryX=0;entryY=0.5;entryDx=0;entryDy=0;startSize=24;startArrow=diamondThin;startFill=1;endArrow=none;endFill=0;" parent="1" source="Cp1J3vhHp7di8gAdqNgf-35" target="Cp1J3vhHp7di8gAdqNgf-39" edge="1">
          <mxGeometry relative="1" as="geometry">
            <mxPoint x="2773.63" y="1615" as="sourcePoint" />
          </mxGeometry>
        </mxCell>
        <mxCell id="Cp1J3vhHp7di8gAdqNgf-39" value="&lt;p style=&quot;margin:0px;margin-top:4px;text-align:center;text-decoration:underline;&quot;&gt;&lt;b&gt;:Ules&lt;/b&gt;&lt;/p&gt;&lt;hr&gt;&lt;p style=&quot;margin:0px;margin-left:8px;&quot;&gt;sor = &#39;A&#39;&lt;/p&gt;&lt;p style=&quot;margin:0px;margin-left:8px;&quot;&gt;szam = 1&lt;br&gt;&lt;/p&gt;" style="verticalAlign=top;align=left;overflow=fill;fontSize=12;fontFamily=Helvetica;html=1;whiteSpace=wrap;" parent="1" vertex="1">
          <mxGeometry x="2873.63" y="1580" width="160" height="70" as="geometry" />
        </mxCell>
        <mxCell id="Cp1J3vhHp7di8gAdqNgf-40" value="&lt;div align=&quot;left&quot;&gt;ules&lt;br&gt;&lt;/div&gt;" style="text;html=1;strokeColor=none;fillColor=none;align=left;verticalAlign=middle;whiteSpace=wrap;rounded=0;" parent="1" vertex="1">
          <mxGeometry x="2843.63" y="1610" width="55" height="40" as="geometry" />
        </mxCell>
        <mxCell id="Cp1J3vhHp7di8gAdqNgf-41" value="&lt;font style=&quot;font-size: 36px;&quot;&gt;&lt;span id=&quot;page40R_mcid60&quot; class=&quot;markedContent&quot;&gt;Objektum állapotgép&lt;br&gt;&lt;/span&gt;&lt;/font&gt;" style="rounded=0;whiteSpace=wrap;html=1;" parent="1" vertex="1">
          <mxGeometry x="2140" y="1770" width="480" height="60" as="geometry" />
        </mxCell>
        <mxCell id="Cp1J3vhHp7di8gAdqNgf-42" value="" style="ellipse;whiteSpace=wrap;html=1;aspect=fixed;fillColor=#000000;" parent="1" vertex="1">
          <mxGeometry x="1660" y="1900.49" width="29" height="29" as="geometry" />
        </mxCell>
        <mxCell id="Cp1J3vhHp7di8gAdqNgf-45" value="&amp;lt;precedes&amp;gt;" style="text;html=1;strokeColor=none;fillColor=none;align=center;verticalAlign=middle;whiteSpace=wrap;rounded=0;" parent="1" vertex="1">
          <mxGeometry x="2070" y="760.21" width="100" height="30" as="geometry" />
        </mxCell>
        <mxCell id="Cp1J3vhHp7di8gAdqNgf-47" value="&amp;lt;precedes&amp;gt;" style="text;html=1;strokeColor=none;fillColor=none;align=center;verticalAlign=middle;whiteSpace=wrap;rounded=0;" parent="1" vertex="1">
          <mxGeometry x="2620" y="380" width="80" height="20" as="geometry" />
        </mxCell>
        <mxCell id="Cp1J3vhHp7di8gAdqNgf-48" style="edgeStyle=orthogonalEdgeStyle;rounded=0;orthogonalLoop=1;jettySize=auto;html=1;exitX=0.5;exitY=1;exitDx=0;exitDy=0;endArrow=open;endFill=0;dashed=1;dashPattern=8 8;" parent="1" edge="1">
          <mxGeometry relative="1" as="geometry">
            <mxPoint x="2620" y="470" as="sourcePoint" />
            <mxPoint x="2620" y="490" as="targetPoint" />
          </mxGeometry>
        </mxCell>
        <mxCell id="Cp1J3vhHp7di8gAdqNgf-49" value="&amp;lt;precedes&amp;gt;" style="text;html=1;strokeColor=none;fillColor=none;align=center;verticalAlign=middle;whiteSpace=wrap;rounded=0;" parent="1" vertex="1">
          <mxGeometry x="2620" y="470" width="80" height="20" as="geometry" />
        </mxCell>
        <mxCell id="Cp1J3vhHp7di8gAdqNgf-51" value="&amp;lt;include&amp;gt;" style="text;html=1;strokeColor=none;fillColor=none;align=center;verticalAlign=middle;whiteSpace=wrap;rounded=0;" parent="1" vertex="1">
          <mxGeometry x="2193.63" y="800" width="90" height="30" as="geometry" />
        </mxCell>
        <mxCell id="Cp1J3vhHp7di8gAdqNgf-55" value="" style="ellipse;whiteSpace=wrap;html=1;aspect=fixed;fillColor=#000000;" parent="1" vertex="1">
          <mxGeometry x="3096.88" y="1900.49" width="29" height="29" as="geometry" />
        </mxCell>
        <mxCell id="Cp1J3vhHp7di8gAdqNgf-56" value="" style="ellipse;whiteSpace=wrap;html=1;aspect=fixed;fillColor=none;" parent="1" vertex="1">
          <mxGeometry x="3090" y="1893.6200000000001" width="42.75" height="42.75" as="geometry" />
        </mxCell>
        <mxCell id="Cp1J3vhHp7di8gAdqNgf-61" value="" style="rounded=0;orthogonalLoop=1;jettySize=auto;html=1;exitX=1;exitY=0.5;exitDx=0;exitDy=0;entryX=0;entryY=0.5;entryDx=0;entryDy=0;endArrow=open;endFill=0;endSize=12;" parent="1" source="Cp1J3vhHp7di8gAdqNgf-64" target="Cp1J3vhHp7di8gAdqNgf-56" edge="1">
          <mxGeometry relative="1" as="geometry">
            <mxPoint x="2490" y="1915.51" as="sourcePoint" />
            <mxPoint x="2540" y="1914.9999999999998" as="targetPoint" />
          </mxGeometry>
        </mxCell>
        <mxCell id="Cp1J3vhHp7di8gAdqNgf-65" value="" style="rounded=0;orthogonalLoop=1;jettySize=auto;html=1;exitX=1;exitY=0.5;exitDx=0;exitDy=0;entryX=0;entryY=0.5;entryDx=0;entryDy=0;endArrow=open;endFill=0;endSize=12;" parent="1" source="Cp1J3vhHp7di8gAdqNgf-42" target="Cp1J3vhHp7di8gAdqNgf-62" edge="1">
          <mxGeometry relative="1" as="geometry">
            <mxPoint x="1707.63" y="1915.49" as="sourcePoint" />
            <mxPoint x="2268.63" y="1914.49" as="targetPoint" />
          </mxGeometry>
        </mxCell>
        <mxCell id="Cp1J3vhHp7di8gAdqNgf-62" value="szabad" style="rounded=1;whiteSpace=wrap;html=1;arcSize=27;" parent="1" vertex="1">
          <mxGeometry x="1768.63" y="1884.99" width="120" height="60" as="geometry" />
        </mxCell>
        <mxCell id="Cp1J3vhHp7di8gAdqNgf-66" value="" style="rounded=0;orthogonalLoop=1;jettySize=auto;html=1;exitX=1;exitY=0.5;exitDx=0;exitDy=0;entryX=0;entryY=0.5;entryDx=0;entryDy=0;endArrow=open;endFill=0;endSize=12;" parent="1" source="Cp1J3vhHp7di8gAdqNgf-62" target="Cp1J3vhHp7di8gAdqNgf-63" edge="1">
          <mxGeometry relative="1" as="geometry">
            <mxPoint x="1988.63" y="1915.99" as="sourcePoint" />
            <mxPoint x="2388.63" y="1914.99" as="targetPoint" />
          </mxGeometry>
        </mxCell>
        <mxCell id="7cZMRGCg5zAJAYEofahR-6" style="edgeStyle=orthogonalEdgeStyle;rounded=0;orthogonalLoop=1;jettySize=auto;html=1;exitX=0.5;exitY=1;exitDx=0;exitDy=0;entryX=0.5;entryY=1;entryDx=0;entryDy=0;endSize=12;endArrow=open;endFill=0;" parent="1" source="Cp1J3vhHp7di8gAdqNgf-63" target="Cp1J3vhHp7di8gAdqNgf-62" edge="1">
          <mxGeometry relative="1" as="geometry">
            <Array as="points">
              <mxPoint x="2389" y="2020" />
              <mxPoint x="1829" y="2020" />
            </Array>
          </mxGeometry>
        </mxCell>
        <mxCell id="Cp1J3vhHp7di8gAdqNgf-63" value="foglalt" style="rounded=1;whiteSpace=wrap;html=1;arcSize=27;" parent="1" vertex="1">
          <mxGeometry x="2328.63" y="1885" width="120" height="60" as="geometry" />
        </mxCell>
        <mxCell id="Cp1J3vhHp7di8gAdqNgf-67" value="" style="rounded=0;orthogonalLoop=1;jettySize=auto;html=1;exitX=1;exitY=0.5;exitDx=0;exitDy=0;entryX=0;entryY=0.5;entryDx=0;entryDy=0;endArrow=open;endFill=0;endSize=12;" parent="1" source="Cp1J3vhHp7di8gAdqNgf-63" target="Cp1J3vhHp7di8gAdqNgf-64" edge="1">
          <mxGeometry relative="1" as="geometry">
            <mxPoint x="2318.63" y="1914.5" as="sourcePoint" />
            <mxPoint x="2568.63" y="1914.5" as="targetPoint" />
          </mxGeometry>
        </mxCell>
        <mxCell id="Cp1J3vhHp7di8gAdqNgf-64" value="eladott" style="rounded=1;whiteSpace=wrap;html=1;arcSize=27;" parent="1" vertex="1">
          <mxGeometry x="2890" y="1885" width="120" height="60" as="geometry" />
        </mxCell>
        <mxCell id="Cp1J3vhHp7di8gAdqNgf-69" value="foglal / eloadas.foglaltHelyek[i].Foglaltta(foglaltHelyek[i].allapot) " style="text;html=1;align=center;verticalAlign=middle;resizable=0;points=[];autosize=1;strokeColor=none;fillColor=none;" parent="1" vertex="1">
          <mxGeometry x="1928.63" y="1889.99" width="340" height="30" as="geometry" />
        </mxCell>
        <mxCell id="Cp1J3vhHp7di8gAdqNgf-70" value="" style="endArrow=open;endFill=1;endSize=12;html=1;rounded=0;elbow=vertical;exitX=1;exitY=0.5;exitDx=0;exitDy=0;entryX=0;entryY=0.5;entryDx=0;entryDy=0;" parent="1" source="qI7ad0C5QOCOGanBFrG0-22" target="qI7ad0C5QOCOGanBFrG0-32" edge="1">
          <mxGeometry width="160" relative="1" as="geometry">
            <mxPoint x="655.5" y="419" as="sourcePoint" />
            <mxPoint x="970" y="432.6737500000004" as="targetPoint" />
          </mxGeometry>
        </mxCell>
        <mxCell id="mAAy-k8h5P1W6E8aGdol-14" value="&lt;div&gt;&lt;br&gt;&lt;/div&gt;&lt;div align=&quot;right&quot;&gt;*&lt;br&gt;&lt;/div&gt;&lt;div&gt;&lt;br&gt;&lt;/div&gt;&lt;div align=&quot;left&quot;&gt;+ eloadasok&lt;br&gt;&amp;nbsp; {readonly}&lt;br&gt;&lt;/div&gt;" style="text;html=1;strokeColor=none;fillColor=none;align=left;verticalAlign=middle;whiteSpace=wrap;rounded=0;" parent="1" vertex="1">
          <mxGeometry x="1190" y="391.88" width="70" height="80" as="geometry" />
        </mxCell>
        <mxCell id="Cp1J3vhHp7di8gAdqNgf-74" value="Foglalás típusának beállítása" style="ellipse;whiteSpace=wrap;html=1;" parent="1" vertex="1">
          <mxGeometry x="2550" y="580" width="140" height="70" as="geometry" />
        </mxCell>
        <mxCell id="Cp1J3vhHp7di8gAdqNgf-76" value="&amp;lt;precedes&amp;gt;" style="text;html=1;strokeColor=none;fillColor=none;align=center;verticalAlign=middle;whiteSpace=wrap;rounded=0;" parent="1" vertex="1">
          <mxGeometry x="2620" y="560" width="80" height="20" as="geometry" />
        </mxCell>
        <mxCell id="Cp1J3vhHp7di8gAdqNgf-78" value="&amp;lt;include&amp;gt;" style="text;html=1;strokeColor=none;fillColor=none;align=center;verticalAlign=middle;whiteSpace=wrap;rounded=0;" parent="1" vertex="1">
          <mxGeometry x="2360" y="530" width="100" height="30" as="geometry" />
        </mxCell>
        <mxCell id="Cp1J3vhHp7di8gAdqNgf-79" value="&lt;p style=&quot;margin:0px;margin-top:4px;text-align:center;text-decoration:underline;&quot;&gt;&lt;b&gt;:Film&lt;/b&gt;&lt;/p&gt;&lt;hr&gt;&lt;p style=&quot;margin:0px;margin-left:8px;&quot;&gt;cim = &quot;Maugli&quot;&lt;/p&gt;&lt;p style=&quot;margin:0px;margin-left:8px;&quot;&gt;nazettseg : int&amp;nbsp;&amp;nbsp;&amp;nbsp; {readonly}&lt;/p&gt;" style="verticalAlign=top;align=left;overflow=fill;fontSize=12;fontFamily=Helvetica;html=1;whiteSpace=wrap;" parent="1" vertex="1">
          <mxGeometry x="2313.63" y="1119.5" width="160" height="71" as="geometry" />
        </mxCell>
        <mxCell id="Cp1J3vhHp7di8gAdqNgf-80" value="&lt;p style=&quot;margin:0px;margin-top:4px;text-align:center;text-decoration:underline;&quot;&gt;&lt;b&gt;:Film&lt;/b&gt;&lt;/p&gt;&lt;hr&gt;&lt;p style=&quot;margin:0px;margin-left:8px;&quot;&gt;cim = &quot;Forest Gump&quot;&lt;/p&gt;&lt;p style=&quot;margin:0px;margin-left:8px;&quot;&gt;nazettseg : int&amp;nbsp;&amp;nbsp;&amp;nbsp; {readonly}&lt;/p&gt;" style="verticalAlign=top;align=left;overflow=fill;fontSize=12;fontFamily=Helvetica;html=1;whiteSpace=wrap;" parent="1" vertex="1">
          <mxGeometry x="2313.63" y="1228" width="160" height="71" as="geometry" />
        </mxCell>
        <mxCell id="Cp1J3vhHp7di8gAdqNgf-81" value="&lt;div align=&quot;right&quot;&gt;*&lt;br&gt;&lt;/div&gt;&lt;div&gt;&lt;br&gt;&lt;/div&gt;&lt;div align=&quot;left&quot;&gt;- filmtar&lt;br&gt;&lt;/div&gt;" style="text;html=1;strokeColor=none;fillColor=none;align=left;verticalAlign=middle;whiteSpace=wrap;rounded=0;" parent="1" vertex="1">
          <mxGeometry x="758.5" y="105" width="70" height="50" as="geometry" />
        </mxCell>
        <mxCell id="7cZMRGCg5zAJAYEofahR-1" value="megvesz / eloadas.foglaltHelyek[i].Eladotta(foglaltHelyek[i].allapot) " style="text;html=1;align=center;verticalAlign=middle;resizable=0;points=[];autosize=1;strokeColor=none;fillColor=none;" parent="1" vertex="1">
          <mxGeometry x="2490" y="1890" width="380" height="30" as="geometry" />
        </mxCell>
        <mxCell id="7cZMRGCg5zAJAYEofahR-5" value="lemond / eloadas.foglaltHelyek[i].Szabadda(foglaltHelyek[i].allapot) " style="text;html=1;align=center;verticalAlign=middle;resizable=0;points=[];autosize=1;strokeColor=none;fillColor=none;" parent="1" vertex="1">
          <mxGeometry x="1903.63" y="1994" width="390" height="30" as="geometry" />
        </mxCell>
        <mxCell id="7cZMRGCg5zAJAYEofahR-8" style="rounded=0;orthogonalLoop=1;jettySize=auto;html=1;exitX=0;exitY=0.5;exitDx=0;exitDy=0;endArrow=none;endFill=0;" parent="1" source="7cZMRGCg5zAJAYEofahR-7" edge="1">
          <mxGeometry relative="1" as="geometry">
            <mxPoint x="1980" y="710" as="targetPoint" />
          </mxGeometry>
        </mxCell>
        <mxCell id="7cZMRGCg5zAJAYEofahR-11" style="rounded=0;orthogonalLoop=1;jettySize=auto;html=1;exitX=1;exitY=0.5;exitDx=0;exitDy=0;entryX=0;entryY=0.5;entryDx=0;entryDy=0;dashed=1;dashPattern=8 8;endArrow=open;endFill=0;" parent="1" source="7cZMRGCg5zAJAYEofahR-7" target="mAAy-k8h5P1W6E8aGdol-58" edge="1">
          <mxGeometry relative="1" as="geometry" />
        </mxCell>
        <mxCell id="7cZMRGCg5zAJAYEofahR-14" style="rounded=0;orthogonalLoop=1;jettySize=auto;html=1;exitX=1;exitY=0.5;exitDx=0;exitDy=0;entryX=0;entryY=0.5;entryDx=0;entryDy=0;dashed=1;dashPattern=8 8;endArrow=open;endFill=0;" parent="1" source="7cZMRGCg5zAJAYEofahR-7" target="7cZMRGCg5zAJAYEofahR-12" edge="1">
          <mxGeometry relative="1" as="geometry" />
        </mxCell>
        <mxCell id="7cZMRGCg5zAJAYEofahR-18" style="rounded=0;orthogonalLoop=1;jettySize=auto;html=1;exitX=0;exitY=0.5;exitDx=0;exitDy=0;endArrow=none;endFill=0;" parent="1" source="7cZMRGCg5zAJAYEofahR-7" edge="1">
          <mxGeometry relative="1" as="geometry">
            <mxPoint x="1980" y="259.9999999999998" as="targetPoint" />
          </mxGeometry>
        </mxCell>
        <mxCell id="7cZMRGCg5zAJAYEofahR-7" value="Foglalás lemondása" style="ellipse;whiteSpace=wrap;html=1;" parent="1" vertex="1">
          <mxGeometry x="2070" y="675" width="140" height="70" as="geometry" />
        </mxCell>
        <mxCell id="7cZMRGCg5zAJAYEofahR-10" value="&amp;lt;precedes&amp;gt;" style="text;html=1;strokeColor=none;fillColor=none;align=center;verticalAlign=middle;whiteSpace=wrap;rounded=0;" parent="1" vertex="1">
          <mxGeometry x="2230" y="620" width="100" height="30" as="geometry" />
        </mxCell>
        <mxCell id="7cZMRGCg5zAJAYEofahR-12" value="Foglalás törlése" style="ellipse;whiteSpace=wrap;html=1;" parent="1" vertex="1">
          <mxGeometry x="2550" y="670" width="140" height="70" as="geometry" />
        </mxCell>
        <mxCell id="7cZMRGCg5zAJAYEofahR-15" value="&amp;lt;precedes&amp;gt;" style="text;html=1;strokeColor=none;fillColor=none;align=center;verticalAlign=middle;whiteSpace=wrap;rounded=0;" parent="1" vertex="1">
          <mxGeometry x="2480" y="800.21" width="100" height="30" as="geometry" />
        </mxCell>
        <mxCell id="7cZMRGCg5zAJAYEofahR-16" value="&amp;lt;include&amp;gt;" style="text;html=1;strokeColor=none;fillColor=none;align=center;verticalAlign=middle;whiteSpace=wrap;rounded=0;" parent="1" vertex="1">
          <mxGeometry x="2120" y="790.21" width="90" height="30" as="geometry" />
        </mxCell>
        <mxCell id="7cZMRGCg5zAJAYEofahR-19" value="&lt;font style=&quot;font-size: 36px;&quot;&gt;&amp;nbsp;Függvények&lt;br&gt;&lt;/font&gt;" style="rounded=0;whiteSpace=wrap;html=1;" parent="1" vertex="1">
          <mxGeometry x="555" y="1010" width="480" height="60" as="geometry" />
        </mxCell>
        <mxCell id="7cZMRGCg5zAJAYEofahR-20" value="Szemely:" style="text;html=1;align=left;verticalAlign=middle;resizable=0;points=[];autosize=1;strokeColor=none;fillColor=none;fontSize=24;" parent="1" vertex="1">
          <mxGeometry x="120" y="1110" width="120" height="40" as="geometry" />
        </mxCell>
        <mxCell id="7cZMRGCg5zAJAYEofahR-22" value="&lt;div&gt;&lt;span style=&quot;white-space: pre;&quot;&gt; &lt;/span&gt; &lt;span style=&quot;white-space: pre;&quot;&gt; &lt;/span&gt;&amp;nbsp;&amp;nbsp;&amp;nbsp; &lt;u&gt;Szemely&lt;/u&gt;&lt;/div&gt;&lt;div&gt;...&lt;br&gt;&lt;/div&gt;" style="shape=note;size=14;whiteSpace=wrap;html=1;verticalAlign=top;align=left;" parent="1" vertex="1">
          <mxGeometry x="120" y="1150" width="180" height="49.5" as="geometry" />
        </mxCell>
        <mxCell id="7cZMRGCg5zAJAYEofahR-23" value="&lt;div&gt;&lt;span style=&quot;white-space: pre;&quot;&gt; &lt;span style=&quot;white-space: pre;&quot;&gt; &lt;/span&gt;&lt;span style=&quot;white-space: pre;&quot;&gt; &lt;/span&gt;&lt;span style=&quot;white-space: pre;&quot;&gt; &lt;/span&gt;&lt;span style=&quot;white-space: pre;&quot;&gt; &lt;/span&gt;&lt;span style=&quot;white-space: pre;&quot;&gt; &lt;/span&gt;   &lt;u&gt;Foglalast&lt;/u&gt;&lt;/span&gt;&lt;u&gt;Fizet&lt;/u&gt;&lt;/div&gt;&lt;div&gt;penz = penz - szinhaz.JegyEladas(cim, ido, foglalas, penz)&lt;br&gt;&lt;/div&gt;" style="shape=note;size=14;whiteSpace=wrap;html=1;verticalAlign=top;align=left;" parent="1" vertex="1">
          <mxGeometry x="120" y="1224" width="360" height="45.5" as="geometry" />
        </mxCell>
        <mxCell id="7cZMRGCg5zAJAYEofahR-24" value="&lt;div&gt;&lt;span style=&quot;&quot;&gt; &lt;span style=&quot;&quot;&gt; &lt;/span&gt;&lt;span style=&quot;&quot;&gt; &lt;/span&gt;&lt;span style=&quot;&quot;&gt; &lt;/span&gt;&lt;span style=&quot;&quot;&gt; &lt;/span&gt;&lt;/span&gt;&lt;u&gt;HelybenFizet&lt;br&gt;&lt;/u&gt;&lt;/div&gt;&lt;div&gt;szinhaz.Lefoglal(cim, ido, terem, foglalas)&lt;br&gt;&lt;/div&gt;&lt;div&gt;penz = penz - szinhaz.JegyEladas(cim, ido, foglalas, penz)&lt;br&gt;&lt;/div&gt;" style="shape=note;size=14;whiteSpace=wrap;html=1;verticalAlign=top;align=left;" parent="1" vertex="1">
          <mxGeometry x="120" y="1294" width="360" height="55.5" as="geometry" />
        </mxCell>
        <mxCell id="7cZMRGCg5zAJAYEofahR-25" value="&lt;div&gt;&lt;span style=&quot;&quot;&gt; &lt;span style=&quot;&quot;&gt; &lt;/span&gt;&lt;span style=&quot;&quot;&gt; &lt;/span&gt;&lt;span style=&quot;&quot;&gt;   &lt;/span&gt;&lt;/span&gt;&lt;u&gt;Foglal&lt;br&gt;&lt;/u&gt;&lt;/div&gt;&lt;div&gt;szinhaz.Lefoglal(cim, ido, terem, foglalas)&lt;/div&gt;" style="shape=note;size=14;whiteSpace=wrap;html=1;verticalAlign=top;align=left;" parent="1" vertex="1">
          <mxGeometry x="120" y="1373.5" width="260" height="46" as="geometry" />
        </mxCell>
        <mxCell id="7cZMRGCg5zAJAYEofahR-26" value="&lt;div&gt;&lt;span style=&quot;white-space: pre;&quot;&gt; &lt;/span&gt;&lt;span style=&quot;&quot;&gt;&lt;span style=&quot;white-space: pre;&quot;&gt;&amp;nbsp;&amp;nbsp;&amp;nbsp;&amp;nbsp;&lt;/span&gt;&lt;span style=&quot;&quot;&gt;&lt;span style=&quot;white-space: pre;&quot;&gt;&amp;nbsp;&amp;nbsp;&amp;nbsp;&amp;nbsp;&lt;/span&gt;&lt;/span&gt;&lt;span style=&quot;&quot;&gt;&lt;span style=&quot;white-space: pre;&quot;&gt;&amp;nbsp;&amp;nbsp;&amp;nbsp;&amp;nbsp;&lt;/span&gt;&lt;/span&gt;&lt;span style=&quot;&quot;&gt;&lt;span style=&quot;white-space: pre;&quot;&gt;&amp;nbsp;&amp;nbsp;&amp;nbsp;&amp;nbsp;&lt;/span&gt;&lt;/span&gt;&lt;span style=&quot;&quot;&gt;&lt;span style=&quot;&quot;&gt;&lt;span style=&quot;white-space: pre;&quot;&gt;&amp;nbsp;&amp;nbsp;&amp;nbsp;&amp;nbsp;&lt;/span&gt;&lt;/span&gt;&lt;span style=&quot;white-space: pre;&quot;&gt;&amp;nbsp;&amp;nbsp;&amp;nbsp;&amp;nbsp;&lt;/span&gt;&lt;/span&gt;&lt;/span&gt;&lt;u&gt;Lemond&lt;/u&gt;&lt;u&gt;&lt;br&gt;&lt;/u&gt;&lt;div&gt;szinhaz.Lemondas(cim, ido, terem, foglalas)&lt;/div&gt;&lt;/div&gt;" style="shape=note;size=14;whiteSpace=wrap;html=1;verticalAlign=top;align=left;" parent="1" vertex="1">
          <mxGeometry x="120" y="1438.5" width="280" height="41" as="geometry" />
        </mxCell>
        <mxCell id="7cZMRGCg5zAJAYEofahR-28" value="&lt;div align=&quot;left&quot;&gt;Szinhaz:&lt;/div&gt;" style="text;html=1;align=left;verticalAlign=middle;resizable=0;points=[];autosize=1;strokeColor=none;fillColor=none;fontSize=24;" parent="1" vertex="1">
          <mxGeometry x="120" y="1519.5" width="120" height="40" as="geometry" />
        </mxCell>
        <mxCell id="7cZMRGCg5zAJAYEofahR-29" value="&lt;div&gt;&lt;span style=&quot;&quot;&gt;&lt;span style=&quot;white-space: pre;&quot;&gt;&lt;span style=&quot;white-space: pre;&quot;&gt; &lt;/span&gt;&lt;span style=&quot;white-space: pre;&quot;&gt; &lt;/span&gt;&lt;span style=&quot;white-space: pre;&quot;&gt;&lt;span style=&quot;white-space: pre;&quot;&gt; &lt;/span&gt;&lt;span style=&quot;white-space: pre;&quot;&gt; &lt;/span&gt;&lt;span style=&quot;white-space: pre;&quot;&gt; &lt;/span&gt; &lt;/span&gt;&lt;/span&gt;&lt;/span&gt;&lt;u&gt;LegtobbetNezettFilm&lt;/u&gt;&lt;/div&gt;&lt;div&gt;&lt;span style=&quot;&quot;&gt;&lt;span style=&quot;white-space: pre;&quot;&gt;&amp;nbsp;&amp;nbsp;&amp;nbsp;&amp;nbsp;&lt;/span&gt;&lt;/span&gt;&lt;span style=&quot;&quot;&gt;&lt;span style=&quot;white-space: pre;&quot;&gt;&amp;nbsp;&amp;nbsp;&amp;nbsp;&amp;nbsp;&lt;/span&gt;&lt;/span&gt;&lt;sub&gt;&amp;nbsp;&amp;nbsp;&amp;nbsp; &lt;span style=&quot;white-space: pre;&quot;&gt; &lt;/span&gt;&amp;nbsp;&amp;nbsp;&amp;nbsp;&amp;nbsp; |filmtar|&lt;/sub&gt;&lt;br&gt;&lt;/div&gt;&lt;div&gt;&amp;nbsp;&amp;nbsp; (max, ind):=MAX (filmtar[n].nezettseg)&lt;br&gt;&lt;/div&gt;&lt;div&gt;&lt;span style=&quot;&quot;&gt;&lt;span style=&quot;white-space: pre;&quot;&gt;&amp;nbsp;&amp;nbsp;&amp;nbsp;&amp;nbsp;&lt;/span&gt;&lt;/span&gt;&lt;span style=&quot;&quot;&gt;&lt;span style=&quot;white-space: pre;&quot;&gt;&amp;nbsp;&amp;nbsp;&lt;span style=&quot;white-space: pre;&quot;&gt; &lt;/span&gt;&lt;span style=&quot;white-space: pre;&quot;&gt; &lt;/span&gt;&lt;span style=&quot;white-space: pre;&quot;&gt; &lt;/span&gt;&lt;/span&gt;&lt;/span&gt;&lt;sup&gt;n=0&lt;/sup&gt;&lt;br&gt;&lt;/div&gt;&lt;div&gt;&amp;nbsp;&amp;nbsp; if (max = NULL) then return &quot;Nincs film a filmtárban&quot;&lt;/div&gt;&lt;div&gt;&amp;nbsp;&amp;nbsp; else if (max.nezettseg = 0) then return&quot;Nincsenek még nézettségi adatok&quot;&lt;/div&gt;&lt;div&gt;&amp;nbsp;&amp;nbsp; else return max.cim endif&lt;/div&gt;" style="shape=note;size=14;whiteSpace=wrap;html=1;verticalAlign=top;align=left;" parent="1" vertex="1">
          <mxGeometry x="120" y="1639" width="400" height="121" as="geometry" />
        </mxCell>
        <mxCell id="7cZMRGCg5zAJAYEofahR-30" value="&lt;div&gt;&lt;span style=&quot;&quot;&gt;&lt;span style=&quot;white-space: pre;&quot;&gt;&amp;nbsp;&amp;nbsp;&amp;nbsp;&amp;nbsp;&lt;/span&gt;&lt;span style=&quot;&quot;&gt;&lt;span style=&quot;white-space: pre;&quot;&gt;&amp;nbsp;&amp;nbsp;&amp;nbsp;&amp;nbsp;&lt;/span&gt;&lt;/span&gt;&lt;span style=&quot;&quot;&gt;&lt;span style=&quot;white-space: pre;&quot;&gt;&amp;nbsp;&amp;nbsp;&amp;nbsp;&amp;nbsp;&lt;/span&gt;&lt;/span&gt;&lt;span style=&quot;&quot;&gt;&lt;span style=&quot;white-space: pre;&quot;&gt;&amp;nbsp;&amp;nbsp;&amp;nbsp;&amp;nbsp;&lt;/span&gt;&lt;/span&gt;&lt;span style=&quot;&quot;&gt;&lt;span style=&quot;&quot;&gt;&lt;span style=&quot;white-space: pre;&quot;&gt;&amp;nbsp;&amp;nbsp;&amp;nbsp;&amp;nbsp;&lt;/span&gt;&lt;/span&gt;&lt;span style=&quot;white-space: pre;&quot;&gt;&amp;nbsp;&amp;nbsp;&amp;nbsp;&amp;nbsp;&lt;span style=&quot;white-space: pre;&quot;&gt;             &lt;/span&gt;&lt;/span&gt;&lt;/span&gt;&lt;/span&gt;&lt;u&gt;TeremNyitas&lt;br&gt;&lt;/u&gt;&lt;/div&gt;&lt;div&gt;vetitoterem.Add(vetito)&lt;u&gt;&lt;br&gt;&lt;/u&gt;&lt;/div&gt;&lt;div&gt;foreach (Vetitotermek v in vetitotermek) loop&lt;/div&gt;&lt;div&gt;&amp;nbsp;&amp;nbsp; foreach (Eloadas e in eloadasok) loop&lt;/div&gt;&lt;div&gt;&lt;span style=&quot;white-space: pre;&quot;&gt; &lt;/span&gt;&amp;nbsp;&amp;nbsp; &lt;sub&gt;|filmtar|&lt;/sub&gt;&lt;br&gt;&lt;/div&gt;&lt;div&gt;&amp;nbsp;&amp;nbsp;&amp;nbsp;&amp;nbsp;&amp;nbsp; l:=SEARCH (filmtar[n].cim = e.filmcim)&lt;br&gt;&lt;/div&gt;&lt;div&gt;&lt;span style=&quot;white-space: pre;&quot;&gt; &lt;/span&gt;&amp;nbsp;&amp;nbsp;&amp;nbsp;&amp;nbsp; &lt;sup&gt;n=0&lt;/sup&gt;&lt;/div&gt;&lt;div&gt;&amp;nbsp;&amp;nbsp;&amp;nbsp;&amp;nbsp;&amp;nbsp; if (l = false) then filmtar.Add(new Film(e.filmcim)) endif&lt;/div&gt;&lt;div&gt;&amp;nbsp;&amp;nbsp; endloop&lt;/div&gt;&lt;div&gt;endloop&lt;br&gt;&lt;/div&gt;&lt;div&gt;&lt;br&gt;&lt;/div&gt;" style="shape=note;size=14;whiteSpace=wrap;html=1;verticalAlign=top;align=left;" parent="1" vertex="1">
          <mxGeometry x="120" y="1779" width="310" height="158.75" as="geometry" />
        </mxCell>
        <mxCell id="7cZMRGCg5zAJAYEofahR-31" value="&lt;span style=&quot;&quot;&gt;&lt;span style=&quot;white-space: pre;&quot;&gt;&amp;nbsp;&amp;nbsp;&amp;nbsp;&lt;/span&gt;&lt;span style=&quot;&quot;&gt;&lt;span style=&quot;white-space: pre;&quot;&gt;&amp;nbsp;&amp;nbsp;&amp;nbsp;&amp;nbsp;&lt;/span&gt;&lt;/span&gt;&lt;span style=&quot;&quot;&gt;&lt;span style=&quot;white-space: pre;&quot;&gt;&amp;nbsp;&amp;nbsp;&amp;nbsp;&amp;nbsp;&lt;/span&gt;&lt;/span&gt;&lt;span style=&quot;&quot;&gt;&lt;span style=&quot;white-space: pre;&quot;&gt;&amp;nbsp;&amp;nbsp;&amp;nbsp;&amp;nbsp;&lt;/span&gt;&lt;/span&gt;&lt;span style=&quot;&quot;&gt;&lt;span style=&quot;&quot;&gt;&lt;span style=&quot;white-space: pre;&quot;&gt;&amp;nbsp;&amp;nbsp;&amp;nbsp;&amp;nbsp;&lt;/span&gt;&lt;/span&gt;&lt;span style=&quot;white-space: pre;&quot;&gt;&amp;nbsp;&amp;nbsp;&amp;nbsp;&amp;nbsp;&lt;span style=&quot;white-space: pre;&quot;&gt; &lt;span style=&quot;white-space: pre;&quot;&gt; &lt;/span&gt;&lt;/span&gt;&lt;/span&gt;&lt;/span&gt;&lt;/span&gt;&lt;u&gt;Lefoglal&lt;/u&gt;&lt;div&gt;foreach (Vetitotermek v in vetitotermek) loop&lt;/div&gt;&lt;div&gt;&amp;nbsp;&amp;nbsp; keresett:=v.KeresettEloadas(cim, ido, terem)&lt;br&gt;&lt;/div&gt;&lt;div&gt;&amp;nbsp;&amp;nbsp; if (keresett != NULL) then&lt;/div&gt;&lt;div&gt;&amp;nbsp; &amp;nbsp; &amp;nbsp; v.ValosUles(foglalas.ules)&lt;/div&gt;&lt;div&gt;&amp;nbsp; &amp;nbsp; &amp;nbsp; keresett.FoglalttaAllitas(nev, tipus, ules)&lt;/div&gt;&lt;div&gt;&amp;nbsp;&amp;nbsp;&amp;nbsp;&amp;nbsp;&amp;nbsp; return&lt;br&gt;&lt;/div&gt;&lt;div&gt;&amp;nbsp;&amp;nbsp; endif&lt;/div&gt;&lt;div&gt;endloop&lt;/div&gt;&lt;div&gt;error&lt;br&gt;&lt;/div&gt;&lt;div&gt;&lt;br&gt;&lt;/div&gt;" style="shape=note;size=14;whiteSpace=wrap;html=1;verticalAlign=top;align=left;" parent="1" vertex="1">
          <mxGeometry x="120" y="1958.38" width="250" height="158.75" as="geometry" />
        </mxCell>
        <mxCell id="7cZMRGCg5zAJAYEofahR-32" value="&lt;span style=&quot;&quot;&gt;&lt;span style=&quot;white-space: pre;&quot;&gt;&amp;nbsp;&amp;nbsp;&amp;nbsp;&lt;/span&gt;&lt;span style=&quot;&quot;&gt;&lt;span style=&quot;white-space: pre;&quot;&gt;&amp;nbsp;&amp;nbsp;&amp;nbsp;&amp;nbsp;&lt;/span&gt;&lt;/span&gt;&lt;span style=&quot;&quot;&gt;&lt;span style=&quot;white-space: pre;&quot;&gt;&amp;nbsp;&amp;nbsp;&amp;nbsp;&amp;nbsp;&lt;/span&gt;&lt;/span&gt;&lt;span style=&quot;&quot;&gt;&lt;span style=&quot;white-space: pre;&quot;&gt;&amp;nbsp;&amp;nbsp;&amp;nbsp;&amp;nbsp;&lt;/span&gt;&lt;/span&gt;&lt;span style=&quot;&quot;&gt;&lt;span style=&quot;&quot;&gt;&lt;span style=&quot;white-space: pre;&quot;&gt;&amp;nbsp;&amp;nbsp;&amp;nbsp;&amp;nbsp;&lt;/span&gt;&lt;/span&gt;&lt;span style=&quot;white-space: pre;&quot;&gt;&amp;nbsp;&amp;nbsp;&amp;nbsp;&amp;nbsp;&lt;span style=&quot;white-space: pre;&quot;&gt;       &lt;/span&gt;&lt;/span&gt;&lt;/span&gt;&lt;/span&gt;&lt;u&gt;Lemondas&lt;/u&gt;&lt;div&gt;foreach (Vetitotermek v in vetitotermek) loop&lt;/div&gt;&lt;div&gt;&amp;nbsp;&amp;nbsp; keresett:=v.KeresettEloadas(cim, ido, terem)&lt;br&gt;&lt;/div&gt;&lt;div&gt;&amp;nbsp;&amp;nbsp; if (keresett != NULL) then&lt;/div&gt;&lt;div&gt;&amp;nbsp; &amp;nbsp; &amp;nbsp; v.ValosUles(foglalas.ules)&lt;/div&gt;&lt;div&gt;&amp;nbsp; &amp;nbsp; &amp;nbsp; keresett.SzabaddaAllitas(foglalas)&lt;/div&gt;&lt;div&gt;&amp;nbsp;&amp;nbsp;&amp;nbsp;&amp;nbsp;&amp;nbsp; return&lt;br&gt;&lt;/div&gt;&lt;div&gt;&amp;nbsp;&amp;nbsp; endif&lt;/div&gt;&lt;div&gt;endloop&lt;/div&gt;&lt;div&gt;error&lt;br&gt;&lt;/div&gt;&lt;div&gt;&lt;br&gt;&lt;/div&gt;" style="shape=note;size=14;whiteSpace=wrap;html=1;verticalAlign=top;align=left;" parent="1" vertex="1">
          <mxGeometry x="120" y="2138.9900000000002" width="250" height="158.75" as="geometry" />
        </mxCell>
        <mxCell id="7cZMRGCg5zAJAYEofahR-33" value="&lt;span style=&quot;&quot;&gt;&lt;span style=&quot;&quot;&gt;&amp;nbsp;&amp;nbsp;&amp;nbsp;&lt;/span&gt;&lt;span style=&quot;&quot;&gt;&lt;span style=&quot;&quot;&gt;&amp;nbsp;&amp;nbsp;&amp;nbsp;&amp;nbsp;&lt;/span&gt;&lt;/span&gt;&lt;span style=&quot;&quot;&gt;&lt;span style=&quot;&quot;&gt;&amp;nbsp;&amp;nbsp;&amp;nbsp;&amp;nbsp;&lt;/span&gt;&lt;/span&gt;&lt;span style=&quot;&quot;&gt;&lt;span style=&quot;&quot;&gt;&amp;nbsp;&amp;nbsp;&amp;nbsp;&amp;nbsp;&lt;/span&gt;&lt;/span&gt;&lt;span style=&quot;&quot;&gt;&lt;span style=&quot;&quot;&gt;&lt;span style=&quot;&quot;&gt;&amp;nbsp;&amp;nbsp;&amp;nbsp;&amp;nbsp;&lt;/span&gt;&lt;/span&gt;&lt;span style=&quot;&quot;&gt;&amp;nbsp;&amp;nbsp;&amp;nbsp;&amp;nbsp;&lt;span style=&quot;&quot;&gt;&lt;span style=&quot;white-space: pre;&quot;&gt;&amp;nbsp;&amp;nbsp;&amp;nbsp;&amp;nbsp;&lt;/span&gt;      &lt;/span&gt;&lt;/span&gt;&lt;/span&gt;&lt;/span&gt;&lt;u&gt;JegyEladas&lt;/u&gt;&lt;div&gt;foreach (Vetitotermek v in vetitotermek) loop&lt;/div&gt;&lt;div&gt;&amp;nbsp;&amp;nbsp; keresett:=v.KeresettEloadas(cim, ido, terem)&lt;br&gt;&lt;/div&gt;&lt;div&gt;&amp;nbsp;&amp;nbsp; if (keresett != NULL) then&lt;/div&gt;&lt;div&gt;&amp;nbsp;&amp;nbsp;&amp;nbsp;&amp;nbsp;&amp;nbsp; ar:=Ar(vetito, foglalas)&lt;/div&gt;&lt;div&gt;&amp;nbsp;&amp;nbsp;&amp;nbsp;&amp;nbsp;&amp;nbsp; if (ar &amp;gt; penz) then error endif&lt;/div&gt;&lt;div&gt;&amp;nbsp; &amp;nbsp; &amp;nbsp; keresett.EladottaAllitas(foglalas)&amp;nbsp;&amp;nbsp;&amp;nbsp;&amp;nbsp;&amp;nbsp; &lt;br&gt;&lt;div&gt;&lt;span style=&quot;white-space: pre;&quot;&gt;&amp;nbsp;&amp;nbsp;&amp;nbsp;&amp;nbsp;&lt;/span&gt;&amp;nbsp;&amp;nbsp; &lt;span style=&quot;white-space: pre;&quot;&gt; &lt;/span&gt;&lt;span style=&quot;white-space: pre;&quot;&gt; &lt;/span&gt;&lt;span style=&quot;white-space: pre;&quot;&gt; &lt;/span&gt;&lt;sub&gt;|filmtar|&lt;/sub&gt;&lt;br&gt;&lt;/div&gt;&lt;div&gt;&amp;nbsp;&amp;nbsp;&amp;nbsp;&amp;nbsp;&amp;nbsp; (l,elem):=SELECT(filmtar[n].cim = cim)&lt;br&gt;&lt;/div&gt;&lt;div&gt;&lt;span style=&quot;&quot;&gt;&lt;span style=&quot;white-space: pre;&quot;&gt;&amp;nbsp;&amp;nbsp;&amp;nbsp;&amp;nbsp;&lt;/span&gt;&lt;/span&gt;&amp;nbsp;&amp;nbsp;&amp;nbsp;&amp;nbsp; &lt;span style=&quot;white-space: pre;&quot;&gt; &lt;/span&gt;&lt;span style=&quot;white-space: pre;&quot;&gt; &lt;/span&gt;&amp;nbsp; &lt;sup&gt;n=0&lt;/sup&gt;&lt;/div&gt;&lt;/div&gt;&lt;div&gt;&amp;nbsp;&amp;nbsp;&amp;nbsp;&amp;nbsp;&amp;nbsp; elem.PluszNezettseg()&lt;br&gt;&lt;/div&gt;&lt;div&gt;&amp;nbsp;&amp;nbsp;&amp;nbsp;&amp;nbsp;&amp;nbsp; return ar&lt;br&gt;&lt;/div&gt;&lt;div&gt;&amp;nbsp;&amp;nbsp; endif&lt;/div&gt;&lt;div&gt;endloop&lt;/div&gt;&lt;div&gt;error&lt;br&gt;&lt;/div&gt;&lt;div&gt;&lt;br&gt;&lt;/div&gt;" style="shape=note;size=14;whiteSpace=wrap;html=1;verticalAlign=top;align=left;" parent="1" vertex="1">
          <mxGeometry x="120" y="2317.75" width="250" height="230" as="geometry" />
        </mxCell>
        <mxCell id="7cZMRGCg5zAJAYEofahR-34" value="&lt;span style=&quot;&quot;&gt;&lt;span style=&quot;&quot;&gt;&amp;nbsp;&amp;nbsp;&amp;nbsp;&lt;/span&gt;&lt;span style=&quot;&quot;&gt;&lt;span style=&quot;&quot;&gt;&amp;nbsp;&amp;nbsp;&amp;nbsp;&amp;nbsp;&lt;/span&gt;&lt;/span&gt;&lt;span style=&quot;&quot;&gt;&lt;span style=&quot;&quot;&gt;&amp;nbsp;&amp;nbsp;&amp;nbsp;&amp;nbsp;&lt;/span&gt;&lt;/span&gt;&lt;span style=&quot;&quot;&gt;&lt;span style=&quot;&quot;&gt;&amp;nbsp;&amp;nbsp;&amp;nbsp;&amp;nbsp;&lt;/span&gt;&lt;/span&gt;&lt;span style=&quot;&quot;&gt;&lt;span style=&quot;&quot;&gt;&lt;span style=&quot;&quot;&gt;&amp;nbsp;&amp;nbsp;&amp;nbsp;&amp;nbsp;&lt;/span&gt;&lt;/span&gt;&lt;span style=&quot;&quot;&gt;&amp;nbsp;&amp;nbsp;&amp;nbsp;&amp;nbsp;&lt;span style=&quot;&quot;&gt;&lt;span style=&quot;&quot;&gt;&amp;nbsp;&amp;nbsp;&amp;nbsp;&amp;nbsp;&lt;/span&gt;&lt;span style=&quot;&quot;&gt;&lt;span style=&quot;&quot;&gt;&amp;nbsp;&amp;nbsp;&amp;nbsp;&amp;nbsp;&lt;/span&gt;&lt;/span&gt;&amp;nbsp; &amp;nbsp;&amp;nbsp;&lt;span style=&quot;&quot;&gt;&lt;span style=&quot;&quot;&gt;&amp;nbsp;&amp;nbsp;&amp;nbsp;&amp;nbsp;&lt;/span&gt;&lt;/span&gt;&lt;span style=&quot;&quot;&gt;&lt;span style=&quot;&quot;&gt;&amp;nbsp;&amp;nbsp;&amp;nbsp;&lt;span style=&quot;white-space: pre;&quot;&gt; &lt;/span&gt;&lt;span style=&quot;white-space: pre;&quot;&gt; &lt;/span&gt;&lt;/span&gt;&lt;/span&gt;&lt;/span&gt;&lt;/span&gt;&lt;/span&gt;&lt;/span&gt;&lt;u&gt;Ar&lt;/u&gt;&lt;div&gt;&lt;div&gt;&lt;div&gt;&lt;div&gt;return (vetito.alapar * ((100 - vetito.Szazalek(foglalas)) / 100))&lt;br&gt;&lt;/div&gt;&lt;br&gt;&lt;br&gt;&lt;/div&gt;&lt;br&gt;&lt;br&gt;&lt;/div&gt;&lt;/div&gt;" style="shape=note;size=14;whiteSpace=wrap;html=1;verticalAlign=top;align=left;" parent="1" vertex="1">
          <mxGeometry x="120" y="2567.75" width="370" height="52.25" as="geometry" />
        </mxCell>
        <mxCell id="7cZMRGCg5zAJAYEofahR-35" value="&lt;div&gt;&lt;span style=&quot;white-space: pre;&quot;&gt; &lt;/span&gt;&lt;u&gt; Szinhaz&lt;br&gt;&lt;/u&gt;&lt;/div&gt;&lt;div&gt;vetitotermek:=new List&amp;lt;Vetitotermek&amp;gt;()&lt;br&gt;&lt;/div&gt;&lt;div&gt;filmtar:=new List&amp;lt;Film&amp;gt;()&lt;br&gt;&lt;/div&gt;" style="shape=note;size=14;whiteSpace=wrap;html=1;verticalAlign=top;align=left;" parent="1" vertex="1">
          <mxGeometry x="120" y="1559.5" width="220" height="59.5" as="geometry" />
        </mxCell>
        <mxCell id="7cZMRGCg5zAJAYEofahR-36" value="&lt;div align=&quot;left&quot;&gt;Eloadas:&lt;/div&gt;" style="text;html=1;align=left;verticalAlign=middle;resizable=0;points=[];autosize=1;strokeColor=none;fillColor=none;fontSize=24;" parent="1" vertex="1">
          <mxGeometry x="600" y="2055.25" width="120" height="40" as="geometry" />
        </mxCell>
        <mxCell id="7cZMRGCg5zAJAYEofahR-37" value="&lt;div&gt;&lt;span style=&quot;&quot;&gt;&lt;span style=&quot;&quot;&gt;&lt;span style=&quot;&quot;&gt;&lt;span style=&quot;&quot;&gt;&amp;nbsp;&amp;nbsp;&amp;nbsp;&amp;nbsp;&lt;/span&gt;&lt;/span&gt;&lt;span style=&quot;&quot;&gt;&lt;span style=&quot;&quot;&gt;&amp;nbsp;&amp;nbsp;&amp;nbsp;&amp;nbsp;&lt;/span&gt;&lt;/span&gt;&lt;span style=&quot;&quot;&gt;&lt;span style=&quot;&quot;&gt;&lt;span style=&quot;&quot;&gt;&amp;nbsp;&amp;nbsp;&amp;nbsp;&amp;nbsp;&lt;/span&gt;&lt;/span&gt;&lt;span style=&quot;&quot;&gt;&lt;span style=&quot;&quot;&gt;&amp;nbsp;&amp;nbsp;&amp;nbsp;&amp;nbsp;&lt;/span&gt;&lt;/span&gt;&lt;span style=&quot;&quot;&gt;&lt;span style=&quot;&quot;&gt;&amp;nbsp;&amp;nbsp;&amp;nbsp;&amp;nbsp;&lt;/span&gt;&lt;/span&gt;&lt;span style=&quot;&quot;&gt;&amp;nbsp;&amp;nbsp;&amp;nbsp;&amp;nbsp;&lt;/span&gt;&lt;/span&gt;&lt;/span&gt;&lt;/span&gt;&lt;span style=&quot;white-space: pre;&quot;&gt; &lt;/span&gt;&lt;span style=&quot;white-space: pre;&quot;&gt; &lt;/span&gt;&lt;span style=&quot;white-space: pre;&quot;&gt; &lt;/span&gt;&lt;u&gt;legtobbetNezettFilm&lt;/u&gt;&lt;/div&gt;&lt;div&gt;get {&lt;/div&gt;&lt;div&gt;&amp;nbsp;&amp;nbsp; return new int[] {&lt;/div&gt;&lt;div&gt;&amp;nbsp;&amp;nbsp;&amp;nbsp;&amp;nbsp;&amp;nbsp; maxHely,&lt;br&gt;&lt;/div&gt;&lt;div&gt;&lt;span style=&quot;&quot;&gt;&lt;span style=&quot;&quot;&gt;&amp;nbsp;&amp;nbsp;&amp;nbsp;&amp;nbsp;&lt;/span&gt;&lt;/span&gt;&lt;span style=&quot;&quot;&gt;&lt;span style=&quot;&quot;&gt;&amp;nbsp;&amp;nbsp;&amp;nbsp;&amp;nbsp;&lt;/span&gt;&lt;/span&gt;&lt;sub&gt;&amp;nbsp;&amp;nbsp;&amp;nbsp; &lt;span style=&quot;&quot;&gt;&lt;span style=&quot;&quot;&gt;&amp;nbsp;&amp;nbsp;&amp;nbsp;&lt;/span&gt;&lt;/span&gt;&amp;nbsp;&amp;nbsp; |foglaltHelyek|&lt;/sub&gt;&lt;br&gt;&lt;/div&gt;&lt;div&gt;&amp;nbsp;&amp;nbsp;&amp;nbsp;&amp;nbsp;&amp;nbsp; (max, ind):=Σ (foglaltHelyek[n].allapot = Allapot.FOGLALT),&lt;br&gt;&lt;/div&gt;&lt;div&gt;&lt;span style=&quot;&quot;&gt;&lt;span style=&quot;&quot;&gt;&amp;nbsp;&amp;nbsp;&amp;nbsp;&amp;nbsp;&lt;/span&gt;&lt;/span&gt;&lt;span style=&quot;&quot;&gt;&lt;span style=&quot;&quot;&gt;&amp;nbsp;&amp;nbsp;&lt;span style=&quot;&quot;&gt;&lt;span style=&quot;&quot;&gt;&amp;nbsp;&amp;nbsp;&amp;nbsp;&amp;nbsp;&lt;/span&gt;&lt;/span&gt;&lt;span style=&quot;&quot;&gt;&lt;span style=&quot;&quot;&gt;&amp;nbsp;&amp;nbsp;&amp;nbsp;&amp;nbsp;&lt;/span&gt;&lt;/span&gt;&lt;span style=&quot;&quot;&gt;&lt;span style=&quot;&quot;&gt;&amp;nbsp;&amp;nbsp;&amp;nbsp;&amp;nbsp; &amp;nbsp; &amp;nbsp;&amp;nbsp;     &lt;/span&gt;&lt;/span&gt;&lt;/span&gt;&lt;/span&gt;&lt;sup&gt;n=0&lt;/sup&gt;&lt;br&gt;&lt;div&gt;&lt;span style=&quot;&quot;&gt;&lt;/span&gt;&lt;span style=&quot;&quot;&gt;&lt;span style=&quot;&quot;&gt;&amp;nbsp;&amp;nbsp;&amp;nbsp;&amp;nbsp;&lt;/span&gt;&lt;/span&gt;&lt;sub&gt;&amp;nbsp;&amp;nbsp;&amp;nbsp; &lt;span style=&quot;&quot;&gt;&lt;span style=&quot;&quot;&gt;&amp;nbsp;&amp;nbsp;&amp;nbsp;&lt;/span&gt;&lt;/span&gt;&amp;nbsp;&amp;nbsp;&amp;nbsp;&amp;nbsp;&amp;nbsp; |foglaltHelyek|&lt;/sub&gt;&lt;br&gt;&lt;/div&gt;&lt;div&gt;&amp;nbsp;&amp;nbsp;&amp;nbsp;&amp;nbsp;&amp;nbsp; (max, ind):=Σ (foglaltHelyek[n].allapot = Allapot.ELADOTT)&lt;br&gt;&lt;/div&gt;&lt;span style=&quot;&quot;&gt;&lt;span style=&quot;&quot;&gt;&amp;nbsp;&amp;nbsp;&amp;nbsp;&amp;nbsp;&lt;/span&gt;&lt;/span&gt;&lt;span style=&quot;&quot;&gt;&lt;span style=&quot;&quot;&gt;&amp;nbsp;&amp;nbsp;&lt;span style=&quot;&quot;&gt;&lt;span style=&quot;&quot;&gt;&amp;nbsp;&amp;nbsp;&amp;nbsp;&amp;nbsp;&lt;/span&gt;&lt;/span&gt;&lt;span style=&quot;&quot;&gt;&lt;span style=&quot;&quot;&gt;&amp;nbsp;&amp;nbsp;&amp;nbsp;&amp;nbsp;&lt;/span&gt;&lt;/span&gt;&lt;span style=&quot;&quot;&gt;&lt;span style=&quot;&quot;&gt;&amp;nbsp;&amp;nbsp;&amp;nbsp;&amp;nbsp;&amp;nbsp;&amp;nbsp;&amp;nbsp;&amp;nbsp;&amp;nbsp; &lt;/span&gt;&lt;/span&gt;&lt;/span&gt;&lt;/span&gt;&lt;sup&gt;n=0&lt;/sup&gt;&lt;/div&gt;&lt;div&gt;&lt;sup&gt;&amp;nbsp;&amp;nbsp; }&lt;/sup&gt;&lt;/div&gt;&lt;div&gt;}&lt;/div&gt;&lt;div&gt;private set { }&lt;br&gt;&lt;/div&gt;" style="shape=note;size=14;whiteSpace=wrap;html=1;verticalAlign=top;align=left;" parent="1" vertex="1">
          <mxGeometry x="600" y="2095.25" width="400" height="209.75" as="geometry" />
        </mxCell>
        <mxCell id="7cZMRGCg5zAJAYEofahR-38" value="&lt;div&gt;&lt;span style=&quot;white-space: pre;&quot;&gt; &lt;span style=&quot;white-space: pre;&quot;&gt; &lt;/span&gt;&lt;span style=&quot;white-space: pre;&quot;&gt; &lt;/span&gt;&lt;span style=&quot;white-space: pre;&quot;&gt;   &lt;/span&gt;&lt;/span&gt;&lt;u&gt;Szabadda&lt;br&gt;&lt;/u&gt;&lt;/div&gt;&lt;div&gt;if (a = Allapot.FOGLALT) then a:=Allapot.SZABAD&lt;/div&gt;&lt;div&gt;else error endif&lt;br&gt;&lt;/div&gt;" style="shape=note;size=14;whiteSpace=wrap;html=1;verticalAlign=top;align=left;" parent="1" vertex="1">
          <mxGeometry x="600" y="2332.5" width="270" height="52.5" as="geometry" />
        </mxCell>
        <mxCell id="7cZMRGCg5zAJAYEofahR-39" value="&lt;div&gt;&lt;span style=&quot;white-space: pre;&quot;&gt; &lt;span style=&quot;white-space: pre;&quot;&gt; &lt;/span&gt;&lt;span style=&quot;white-space: pre;&quot;&gt; &lt;/span&gt;&lt;span style=&quot;white-space: pre;&quot;&gt;   &lt;/span&gt;&lt;/span&gt;&lt;u&gt;Foglaltta&lt;br&gt;&lt;/u&gt;&lt;/div&gt;&lt;div&gt;if (a = Allapot.SZABAD) then a:=Allapot.FOGLALT&lt;/div&gt;&lt;div&gt;else error endif&lt;br&gt;&lt;/div&gt;" style="shape=note;size=14;whiteSpace=wrap;html=1;verticalAlign=top;align=left;" parent="1" vertex="1">
          <mxGeometry x="600" y="2406.88" width="270" height="52.5" as="geometry" />
        </mxCell>
        <mxCell id="7cZMRGCg5zAJAYEofahR-40" value="&lt;div&gt;&lt;span style=&quot;white-space: pre;&quot;&gt; &lt;span style=&quot;white-space: pre;&quot;&gt; &lt;/span&gt;&lt;span style=&quot;white-space: pre;&quot;&gt; &lt;/span&gt;&lt;span style=&quot;white-space: pre;&quot;&gt;   &lt;/span&gt;&lt;/span&gt;&lt;u&gt;Eladotta&lt;br&gt;&lt;/u&gt;&lt;/div&gt;&lt;div&gt;if (a = Allapot.FOGLALT) then a:=Allapot.ELADOTT&lt;/div&gt;&lt;div&gt;else error endif&lt;br&gt;&lt;/div&gt;" style="shape=note;size=14;whiteSpace=wrap;html=1;verticalAlign=top;align=left;" parent="1" vertex="1">
          <mxGeometry x="600" y="2480.63" width="270" height="52.5" as="geometry" />
        </mxCell>
        <mxCell id="7cZMRGCg5zAJAYEofahR-41" value="&lt;div&gt;&lt;span style=&quot;&quot;&gt;&lt;span style=&quot;white-space: pre;&quot;&gt;&amp;nbsp;&amp;nbsp;&amp;nbsp;&amp;nbsp;&lt;/span&gt;&lt;span style=&quot;&quot;&gt;&lt;span style=&quot;white-space: pre;&quot;&gt;&amp;nbsp;&amp;nbsp;&amp;nbsp;&amp;nbsp;&lt;/span&gt;&lt;/span&gt;&lt;span style=&quot;&quot;&gt;&lt;span style=&quot;white-space: pre;&quot;&gt;&amp;nbsp;&amp;nbsp;&amp;nbsp;&amp;nbsp;&lt;/span&gt;&lt;/span&gt;&lt;span style=&quot;&quot;&gt;&lt;span style=&quot;white-space: pre;&quot;&gt;&amp;nbsp;&amp;nbsp;&amp;nbsp;&amp;nbsp;&lt;/span&gt;  &lt;/span&gt;&lt;/span&gt;&lt;u&gt;FoglalttaAllitas&lt;br&gt;&lt;/u&gt;&lt;/div&gt;&lt;div&gt;&lt;div&gt;&lt;span style=&quot;white-space: pre;&quot;&gt;&amp;nbsp;&amp;nbsp;&amp;nbsp;&amp;nbsp;&lt;/span&gt;&lt;sub&gt;&amp;nbsp;&amp;nbsp; |filmtar|&lt;/sub&gt;&lt;br&gt;&lt;/div&gt;&lt;div&gt;l:=SEARCH (filmtar[n].cim = e.filmcim)&lt;br&gt;&lt;/div&gt;&lt;div&gt;&lt;span style=&quot;&quot;&gt;&lt;span style=&quot;white-space: pre;&quot;&gt;&amp;nbsp;&amp;nbsp;&amp;nbsp;&amp;nbsp;&lt;/span&gt;&lt;/span&gt;&amp;nbsp;&amp;nbsp;&amp;nbsp;&amp;nbsp; &lt;sup&gt;n=0&lt;/sup&gt;&lt;/div&gt;&lt;/div&gt;&lt;div&gt;if (l) then error&lt;/div&gt;&lt;div&gt;else&lt;/div&gt;&lt;div&gt;&amp;nbsp;&amp;nbsp; f:=new Foglalas(nev, ules, tipus)&lt;/div&gt;&lt;div&gt;&amp;nbsp;&amp;nbsp; foglalthelyek.Add(f)&lt;/div&gt;&lt;div&gt;&amp;nbsp;&amp;nbsp; Foglaltta(f.allapot)&lt;br&gt;&lt;/div&gt;&lt;div&gt;endif&lt;br&gt;&lt;/div&gt;" style="shape=note;size=14;whiteSpace=wrap;html=1;verticalAlign=top;align=left;" parent="1" vertex="1">
          <mxGeometry x="600" y="2555" width="210" height="160" as="geometry" />
        </mxCell>
        <mxCell id="7cZMRGCg5zAJAYEofahR-42" value="&lt;div&gt;&lt;span style=&quot;&quot;&gt;&lt;span style=&quot;&quot;&gt;&amp;nbsp;&amp;nbsp;&amp;nbsp;&amp;nbsp;&lt;/span&gt;&lt;span style=&quot;&quot;&gt;&lt;span style=&quot;&quot;&gt;&amp;nbsp;&amp;nbsp;&amp;nbsp;&amp;nbsp;&lt;/span&gt;&lt;/span&gt;&lt;span style=&quot;&quot;&gt;&lt;span style=&quot;&quot;&gt;&amp;nbsp;&amp;nbsp;&amp;nbsp;&amp;nbsp;&lt;/span&gt;&lt;/span&gt;&lt;span style=&quot;&quot;&gt;&lt;span style=&quot;&quot;&gt;&amp;nbsp;&amp;nbsp;&amp;nbsp;&amp;nbsp;&lt;/span&gt;&lt;/span&gt;&lt;/span&gt;&lt;span style=&quot;white-space: pre;&quot;&gt; &lt;/span&gt;&lt;span style=&quot;white-space: pre;&quot;&gt; &lt;/span&gt;&lt;span style=&quot;white-space: pre;&quot;&gt; &lt;/span&gt;&lt;span style=&quot;white-space: pre;&quot;&gt; &lt;/span&gt;&lt;span style=&quot;white-space: pre;&quot;&gt; &lt;/span&gt;&lt;span style=&quot;white-space: pre;&quot;&gt; &lt;/span&gt;&lt;span style=&quot;white-space: pre;&quot;&gt; &lt;/span&gt;&lt;span style=&quot;white-space: pre;&quot;&gt; &lt;/span&gt;&amp;nbsp; &lt;u&gt;EladottaAllitas&lt;br&gt;&lt;/u&gt;&lt;/div&gt;&lt;div&gt;for i=0..|foglaltHelyek| loop&lt;/div&gt;&lt;div&gt;&amp;nbsp;&amp;nbsp; if (foglaltHelyek[i].nev = nev ∧ foglaltHelyek[i].tipus = tipus ∧ foglaltHelyek[i].allapot = Allapot.FOGLALT) then&lt;/div&gt;&lt;div&gt;&amp;nbsp;&amp;nbsp;&amp;nbsp;&amp;nbsp;&amp;nbsp; Eladotta(foglalthelyek[i].allapot)&lt;/div&gt;&lt;div&gt;&amp;nbsp;&amp;nbsp;&amp;nbsp;&amp;nbsp;&amp;nbsp; return&lt;/div&gt;&lt;div&gt;&amp;nbsp;&amp;nbsp; endif&lt;br&gt;&lt;/div&gt;&lt;div&gt;endloop&lt;br&gt;&lt;/div&gt;&lt;div&gt;error&lt;br&gt;&lt;/div&gt;" style="shape=note;size=14;whiteSpace=wrap;html=1;verticalAlign=top;align=left;" parent="1" vertex="1">
          <mxGeometry x="600" y="2737.49" width="600" height="127.51" as="geometry" />
        </mxCell>
        <mxCell id="7cZMRGCg5zAJAYEofahR-43" value="&lt;div&gt;&lt;span style=&quot;&quot;&gt;&lt;span style=&quot;&quot;&gt;&amp;nbsp;&amp;nbsp;&amp;nbsp;&amp;nbsp;&lt;/span&gt;&lt;span style=&quot;&quot;&gt;&lt;span style=&quot;&quot;&gt;&amp;nbsp;&amp;nbsp;&amp;nbsp;&amp;nbsp;&lt;/span&gt;&lt;/span&gt;&lt;span style=&quot;&quot;&gt;&lt;span style=&quot;&quot;&gt;&amp;nbsp;&amp;nbsp;&amp;nbsp;&amp;nbsp;&lt;/span&gt;&lt;/span&gt;&lt;span style=&quot;&quot;&gt;&lt;span style=&quot;&quot;&gt;&amp;nbsp;&amp;nbsp;&amp;nbsp; &lt;/span&gt;&lt;/span&gt;&lt;/span&gt;&lt;span style=&quot;&quot;&gt;&lt;span style=&quot;white-space: pre;&quot;&gt;&amp;nbsp;&amp;nbsp;&amp;nbsp;&amp;nbsp;&lt;/span&gt;&lt;/span&gt;&lt;span style=&quot;&quot;&gt;&lt;span style=&quot;white-space: pre;&quot;&gt;&amp;nbsp;&amp;nbsp;&amp;nbsp;&amp;nbsp;&lt;/span&gt;&lt;/span&gt;&lt;span style=&quot;&quot;&gt;&lt;span style=&quot;white-space: pre;&quot;&gt;&amp;nbsp;&amp;nbsp;&amp;nbsp;&amp;nbsp;&lt;/span&gt;&lt;/span&gt;&lt;span style=&quot;&quot;&gt;&lt;span style=&quot;white-space: pre;&quot;&gt;&amp;nbsp;&amp;nbsp;&amp;nbsp;&amp;nbsp;&lt;/span&gt;&lt;/span&gt;&lt;span style=&quot;&quot;&gt;&lt;span style=&quot;white-space: pre;&quot;&gt;&amp;nbsp;&amp;nbsp;&amp;nbsp;&amp;nbsp;&lt;/span&gt;&lt;/span&gt;&lt;span style=&quot;&quot;&gt;&lt;span style=&quot;white-space: pre;&quot;&gt;&amp;nbsp;&amp;nbsp;&amp;nbsp;&amp;nbsp;&lt;/span&gt;&lt;/span&gt;&lt;span style=&quot;&quot;&gt;&lt;span style=&quot;white-space: pre;&quot;&gt;&amp;nbsp;&amp;nbsp;&amp;nbsp;&amp;nbsp;&lt;span style=&quot;white-space: pre;&quot;&gt; &lt;/span&gt;&lt;span style=&quot;white-space: pre;&quot;&gt; &lt;/span&gt;&lt;span style=&quot;white-space: pre;&quot;&gt; &lt;/span&gt;&lt;span style=&quot;white-space: pre;&quot;&gt; &lt;/span&gt;&lt;span style=&quot;white-space: pre;&quot;&gt; &lt;/span&gt;&lt;span style=&quot;white-space: pre;&quot;&gt; &lt;/span&gt;&lt;span style=&quot;white-space: pre;&quot;&gt; &lt;/span&gt;&lt;/span&gt;&lt;/span&gt;&lt;span style=&quot;&quot;&gt;&lt;span style=&quot;white-space: pre;&quot;&gt;&amp;nbsp;&amp;nbsp;&amp;nbsp;&amp;nbsp;&lt;/span&gt;&lt;/span&gt;&lt;u&gt;SzabaddaAllitas&lt;br&gt;&lt;/u&gt;&lt;/div&gt;&lt;div&gt;for i=0..|foglaltHelyek| loop&lt;/div&gt;&lt;div&gt;&amp;nbsp;&amp;nbsp; if (foglaltHelyek[i].nev = nev ∧ foglaltHelyek[i].tipus = tipus ∧ foglaltHelyek[i].ules = ules ∧ foglaltHelyek[i].allapot = Allapot.FOGLALT) then&lt;/div&gt;&lt;div&gt;&amp;nbsp;&amp;nbsp;&amp;nbsp;&amp;nbsp;&amp;nbsp; Eladotta(foglalthelyek[i].allapot)&lt;/div&gt;&lt;div&gt;&amp;nbsp;&amp;nbsp;&amp;nbsp;&amp;nbsp;&amp;nbsp; return&lt;/div&gt;&lt;div&gt;&amp;nbsp;&amp;nbsp; endif&lt;br&gt;&lt;/div&gt;&lt;div&gt;endloop&lt;/div&gt;&lt;div&gt;error&lt;br&gt;&lt;/div&gt;" style="shape=note;size=14;whiteSpace=wrap;html=1;verticalAlign=top;align=left;" parent="1" vertex="1">
          <mxGeometry x="600" y="2885" width="730" height="130" as="geometry" />
        </mxCell>
        <mxCell id="7cZMRGCg5zAJAYEofahR-44" value="Vetitoterem:" style="text;html=1;align=left;verticalAlign=middle;resizable=0;points=[];autosize=1;strokeColor=none;fillColor=none;fontSize=24;" parent="1" vertex="1">
          <mxGeometry x="600" y="1134" width="150" height="40" as="geometry" />
        </mxCell>
        <mxCell id="7cZMRGCg5zAJAYEofahR-45" value="&lt;div&gt;&lt;span style=&quot;white-space: pre;&quot;&gt; &lt;/span&gt;&lt;span style=&quot;white-space: pre;&quot;&gt; &lt;/span&gt; &lt;u&gt;Vetitoterem&lt;br&gt;&lt;/u&gt;&lt;/div&gt;&lt;div&gt;...&lt;/div&gt;&lt;div&gt;eloadasok:=new List&amp;lt;Eloadas&amp;gt;()&lt;br&gt;&lt;/div&gt;" style="shape=note;size=14;whiteSpace=wrap;html=1;verticalAlign=top;align=left;" parent="1" vertex="1">
          <mxGeometry x="600" y="1174" width="180" height="59.5" as="geometry" />
        </mxCell>
        <mxCell id="7cZMRGCg5zAJAYEofahR-46" value="&lt;div&gt;&lt;span style=&quot;white-space: pre;&quot;&gt; &lt;/span&gt;&lt;span style=&quot;white-space: pre;&quot;&gt; &lt;/span&gt;&amp;nbsp; &amp;nbsp; &lt;u&gt;Kozepes&lt;br&gt;&lt;/u&gt;&lt;/div&gt;return false" style="shape=note;size=14;whiteSpace=wrap;html=1;verticalAlign=top;align=left;" parent="1" vertex="1">
          <mxGeometry x="600" y="1258.5" width="180" height="45" as="geometry" />
        </mxCell>
        <mxCell id="7cZMRGCg5zAJAYEofahR-47" value="&lt;div&gt;&lt;span style=&quot;white-space: pre;&quot;&gt; &lt;/span&gt;&lt;span style=&quot;white-space: pre;&quot;&gt; &lt;/span&gt;&amp;nbsp;&amp;nbsp;&amp;nbsp;&amp;nbsp;&amp;nbsp;&amp;nbsp; &lt;u&gt;Nagy&lt;br&gt;&lt;/u&gt;&lt;/div&gt;return false" style="shape=note;size=14;whiteSpace=wrap;html=1;verticalAlign=top;align=left;" parent="1" vertex="1">
          <mxGeometry x="790" y="1258.5" width="180" height="45" as="geometry" />
        </mxCell>
        <mxCell id="7cZMRGCg5zAJAYEofahR-48" value="&lt;div&gt;&lt;span style=&quot;white-space: pre;&quot;&gt; &lt;/span&gt;&lt;span style=&quot;white-space: pre;&quot;&gt; &lt;/span&gt;&amp;nbsp;&amp;nbsp;&amp;nbsp;&amp;nbsp;&amp;nbsp;&amp;nbsp;&amp;nbsp; &lt;u&gt;Vip&lt;br&gt;&lt;/u&gt;&lt;/div&gt;return false" style="shape=note;size=14;whiteSpace=wrap;html=1;verticalAlign=top;align=left;" parent="1" vertex="1">
          <mxGeometry x="600" y="1308.5" width="180" height="45" as="geometry" />
        </mxCell>
        <mxCell id="7cZMRGCg5zAJAYEofahR-49" value="&lt;div&gt;&lt;span style=&quot;white-space: pre;&quot;&gt; &lt;/span&gt;&lt;span style=&quot;white-space: pre;&quot;&gt; &lt;/span&gt;&amp;nbsp;&amp;nbsp;&amp;nbsp;&amp;nbsp; &lt;u&gt;Gyerek&lt;br&gt;&lt;/u&gt;&lt;/div&gt;return 0" style="shape=note;size=14;whiteSpace=wrap;html=1;verticalAlign=top;align=left;" parent="1" vertex="1">
          <mxGeometry x="600" y="1373.5" width="180" height="45" as="geometry" />
        </mxCell>
        <mxCell id="7cZMRGCg5zAJAYEofahR-50" value="&lt;div&gt;&lt;span style=&quot;white-space: pre;&quot;&gt; &lt;/span&gt;&lt;span style=&quot;white-space: pre;&quot;&gt; &lt;/span&gt;&lt;span style=&quot;white-space: pre;&quot;&gt; &lt;/span&gt;&lt;u&gt;Diak&lt;br&gt;&lt;/u&gt;&lt;/div&gt;return 0" style="shape=note;size=14;whiteSpace=wrap;html=1;verticalAlign=top;align=left;" parent="1" vertex="1">
          <mxGeometry x="790" y="1373.5" width="180" height="45" as="geometry" />
        </mxCell>
        <mxCell id="7cZMRGCg5zAJAYEofahR-51" value="&lt;div&gt;&lt;span style=&quot;white-space: pre;&quot;&gt; &lt;/span&gt;&lt;span style=&quot;white-space: pre;&quot;&gt; &lt;/span&gt;&amp;nbsp;&amp;nbsp;&amp;nbsp;&amp;nbsp;&amp;nbsp; &lt;u&gt;Felnott&lt;br&gt;&lt;/u&gt;&lt;/div&gt;return 0" style="shape=note;size=14;whiteSpace=wrap;html=1;verticalAlign=top;align=left;" parent="1" vertex="1">
          <mxGeometry x="600" y="1423.5" width="180" height="45" as="geometry" />
        </mxCell>
        <mxCell id="7cZMRGCg5zAJAYEofahR-52" value="&lt;div&gt;&lt;span style=&quot;white-space: pre;&quot;&gt; &lt;/span&gt;&lt;span style=&quot;white-space: pre;&quot;&gt; &lt;/span&gt;&amp;nbsp;&amp;nbsp;&amp;nbsp; &lt;u&gt;Nyugdijas&lt;br&gt;&lt;/u&gt;&lt;/div&gt;return 0" style="shape=note;size=14;whiteSpace=wrap;html=1;verticalAlign=top;align=left;" parent="1" vertex="1">
          <mxGeometry x="790" y="1423.5" width="180" height="45" as="geometry" />
        </mxCell>
        <mxCell id="7cZMRGCg5zAJAYEofahR-53" value="&lt;div&gt;&lt;span style=&quot;white-space: pre;&quot;&gt; &lt;/span&gt;&lt;span style=&quot;white-space: pre;&quot;&gt; &lt;/span&gt;&amp;nbsp;&amp;nbsp;&amp;nbsp;&amp;nbsp; &lt;u&gt;Torzstag&lt;br&gt;&lt;/u&gt;&lt;/div&gt;return 0" style="shape=note;size=14;whiteSpace=wrap;html=1;verticalAlign=top;align=left;" parent="1" vertex="1">
          <mxGeometry x="600" y="1473.5" width="180" height="45" as="geometry" />
        </mxCell>
        <mxCell id="7cZMRGCg5zAJAYEofahR-54" value="&lt;div&gt;&lt;span style=&quot;&quot;&gt;&lt;span style=&quot;&quot;&gt;&amp;nbsp;&amp;nbsp;&amp;nbsp;&amp;nbsp;&lt;/span&gt;&lt;/span&gt;&lt;span style=&quot;&quot;&gt;&lt;span style=&quot;&quot;&gt;&amp;nbsp;&amp;nbsp;&amp;nbsp;&amp;nbsp;&lt;/span&gt;&lt;/span&gt;&amp;nbsp;&amp;nbsp;&amp;nbsp;&amp;nbsp; &lt;u&gt;UjEloadas&lt;br&gt;&lt;/u&gt;&lt;/div&gt;&lt;div&gt;&lt;div&gt;&amp;nbsp;&amp;nbsp; &lt;sub&gt;|eloadasok|&lt;/sub&gt;&lt;br&gt;&lt;/div&gt;&lt;div&gt;l:=SEARCH (eloadasok[n].kezdet ≤ e.filmcim ∧ eloadasok[n].ido.veg ≥ e.ido.kezdet)&lt;br&gt;&lt;/div&gt;&lt;div&gt;&lt;span style=&quot;&quot;&gt;&lt;span style=&quot;&quot;&gt;&amp;nbsp;&amp;nbsp;&amp;nbsp;&amp;nbsp;&lt;/span&gt;&lt;/span&gt;&amp;nbsp;&amp;nbsp;&amp;nbsp;&amp;nbsp; &lt;sup&gt;n=0&lt;/sup&gt;&lt;/div&gt;&lt;/div&gt;&lt;div&gt;if (l) then error&lt;/div&gt;&lt;div&gt;else&lt;/div&gt;&lt;div&gt;&amp;nbsp;&amp;nbsp; e.maxHely = sorokSzama * ulesSorban&lt;/div&gt;&lt;div&gt;&amp;nbsp;&amp;nbsp; eloadas.Add(e)&lt;/div&gt;&lt;div&gt;endif&lt;br&gt;&lt;/div&gt;" style="shape=note;size=14;whiteSpace=wrap;html=1;verticalAlign=top;align=left;" parent="1" vertex="1">
          <mxGeometry x="600" y="1543.5" width="460" height="150" as="geometry" />
        </mxCell>
        <mxCell id="7cZMRGCg5zAJAYEofahR-55" value="&lt;div&gt;&lt;span style=&quot;&quot;&gt;&lt;span style=&quot;&quot;&gt;&amp;nbsp;&amp;nbsp;&amp;nbsp;&amp;nbsp;&lt;/span&gt;&lt;/span&gt;&lt;span style=&quot;&quot;&gt;&lt;span style=&quot;&quot;&gt;&amp;nbsp;&amp;nbsp;&amp;nbsp;&amp;nbsp;&lt;/span&gt;&lt;/span&gt;&amp;nbsp;&amp;nbsp;&amp;nbsp;&amp;nbsp; &lt;u&gt;ValosUles&lt;br&gt;&lt;/u&gt;&lt;/div&gt;&lt;div&gt;if (ules.sor &amp;lt; 1 ∨ ules.sor &amp;gt; sorokSzama ∨ ules.szam &amp;lt; 1 ∨ ules.szam &amp;gt; ulesSorban)&lt;/div&gt;&lt;div&gt;then error endif&lt;br&gt;&lt;/div&gt;" style="shape=note;size=14;whiteSpace=wrap;html=1;verticalAlign=top;align=left;" parent="1" vertex="1">
          <mxGeometry x="600" y="1713.5" width="480" height="60" as="geometry" />
        </mxCell>
        <mxCell id="7cZMRGCg5zAJAYEofahR-56" value="&lt;span style=&quot;&quot;&gt;&lt;span style=&quot;&quot;&gt;&amp;nbsp;&amp;nbsp;&amp;nbsp;&lt;/span&gt;&lt;span style=&quot;&quot;&gt;&lt;span style=&quot;&quot;&gt;&amp;nbsp;&amp;nbsp;&amp;nbsp;&amp;nbsp;&lt;/span&gt;&lt;/span&gt;&lt;span style=&quot;&quot;&gt;&lt;span style=&quot;&quot;&gt;&amp;nbsp;&amp;nbsp;&amp;nbsp;&amp;nbsp;&lt;/span&gt;&lt;/span&gt;&lt;span style=&quot;&quot;&gt;&lt;span style=&quot;&quot;&gt;&amp;nbsp;&amp;nbsp;&amp;nbsp;&amp;nbsp;&lt;/span&gt;&lt;/span&gt;&lt;span style=&quot;&quot;&gt;&lt;span style=&quot;&quot;&gt;&lt;span style=&quot;&quot;&gt;&amp;nbsp;&amp;nbsp;&amp;nbsp;&amp;nbsp;&lt;/span&gt;&lt;/span&gt;&lt;span style=&quot;&quot;&gt;&amp;nbsp;&amp;nbsp;&amp;nbsp;&amp;nbsp;&lt;span style=&quot;&quot;&gt;&lt;span style=&quot;&quot;&gt;&amp;nbsp;&amp;nbsp;&amp;nbsp;&amp;nbsp;&lt;/span&gt;&lt;span style=&quot;&quot;&gt;&lt;span style=&quot;&quot;&gt;&amp;nbsp;&amp;nbsp;&amp;nbsp;&amp;nbsp;&lt;/span&gt;&lt;/span&gt;&amp;nbsp; &amp;nbsp;&amp;nbsp;&lt;span style=&quot;&quot;&gt;&lt;span style=&quot;&quot;&gt;&amp;nbsp;&amp;nbsp;&amp;nbsp;&amp;nbsp;&lt;/span&gt;&lt;/span&gt;&lt;span style=&quot;&quot;&gt;&lt;span style=&quot;&quot;&gt;&amp;nbsp;&amp;nbsp;&amp;nbsp;&amp;nbsp; &lt;/span&gt;&lt;/span&gt;&lt;/span&gt;&lt;/span&gt;&lt;/span&gt;&lt;/span&gt;&lt;u&gt;KeresettEloadas&lt;/u&gt;&lt;div&gt;joTerem:=0&lt;/div&gt;&lt;div&gt;if (terem = Terem.KOZEPES) then joTerem:=Kozepes()&lt;/div&gt;&lt;div&gt;else if (terem = Terem.NAGY) then joTerem:=Nagy()&lt;/div&gt;&lt;div&gt;&lt;div&gt;else if (terem = Terem.VIP) then joTerem:=VIP()&lt;div&gt;else error endif&lt;/div&gt;&lt;div&gt;if (joTerem) then&lt;br&gt;&lt;div&gt;&lt;div&gt;&amp;nbsp;&amp;nbsp;&amp;nbsp;&amp;nbsp;&lt;sub&gt;&amp;nbsp;&amp;nbsp; &lt;span style=&quot;&quot;&gt;&lt;span style=&quot;&quot;&gt;&amp;nbsp;&amp;nbsp;&amp;nbsp;&amp;nbsp;&lt;/span&gt;&lt;/span&gt;&lt;span style=&quot;&quot;&gt;&lt;span style=&quot;&quot;&gt;&amp;nbsp;&amp;nbsp;&amp;nbsp;&amp;nbsp;&lt;/span&gt;&lt;/span&gt;&amp;nbsp;&amp;nbsp;&amp;nbsp; |eloadasok|&lt;/sub&gt;&lt;br&gt;&lt;/div&gt;&lt;div&gt;&amp;nbsp;&amp;nbsp; (_, elem):=SEARCH (eloadasok[n].filmcim = cim ∧ eloadasok[n].ido = ido)&lt;br&gt;&lt;/div&gt;&lt;div&gt;&lt;span style=&quot;&quot;&gt;&lt;span style=&quot;&quot;&gt;&amp;nbsp;&amp;nbsp;&amp;nbsp;&amp;nbsp;&lt;/span&gt;&lt;/span&gt;&amp;nbsp;&amp;nbsp;&amp;nbsp;&amp;nbsp; &lt;span style=&quot;&quot;&gt;&lt;span style=&quot;&quot;&gt;&amp;nbsp;&amp;nbsp;&amp;nbsp;&amp;nbsp;&lt;/span&gt;&lt;/span&gt;&lt;sup&gt;&amp;nbsp;&amp;nbsp;&amp;nbsp;&amp;nbsp;&amp;nbsp;&amp;nbsp;&amp;nbsp;&amp;nbsp; n=0&lt;/sup&gt;&lt;/div&gt;&lt;div&gt;&amp;nbsp;&amp;nbsp; return elem&lt;sup&gt;&lt;br&gt;&lt;/sup&gt;&lt;/div&gt;&lt;/div&gt;&lt;/div&gt;&lt;div&gt;else return NULL endif&lt;br&gt;&lt;/div&gt;&lt;br&gt;&lt;br&gt;&lt;/div&gt;&lt;div&gt;&lt;br&gt;&lt;br&gt;&lt;/div&gt;&lt;/div&gt;" style="shape=note;size=14;whiteSpace=wrap;html=1;verticalAlign=top;align=left;" parent="1" vertex="1">
          <mxGeometry x="600" y="1791.6899999999998" width="470" height="193.63" as="geometry" />
        </mxCell>
        <mxCell id="7cZMRGCg5zAJAYEofahR-57" value="&lt;div&gt;&lt;span style=&quot;white-space: pre;&quot;&gt; &lt;/span&gt;&lt;span style=&quot;white-space: pre;&quot;&gt; &lt;/span&gt;&amp;nbsp; &amp;nbsp; &lt;u&gt;Kozepes&lt;br&gt;&lt;/u&gt;&lt;/div&gt;return true" style="shape=note;size=14;whiteSpace=wrap;html=1;verticalAlign=top;align=left;" parent="1" vertex="1">
          <mxGeometry x="1160" y="1233.5" width="180" height="45" as="geometry" />
        </mxCell>
        <mxCell id="7cZMRGCg5zAJAYEofahR-58" value="&lt;div&gt;&lt;span style=&quot;white-space: pre;&quot;&gt; &lt;/span&gt;&lt;span style=&quot;white-space: pre;&quot;&gt; &lt;/span&gt;&amp;nbsp;&amp;nbsp;&amp;nbsp;&amp;nbsp; &lt;u&gt;Gyerek&lt;br&gt;&lt;/u&gt;&lt;/div&gt;return 40" style="shape=note;size=14;whiteSpace=wrap;html=1;verticalAlign=top;align=left;" parent="1" vertex="1">
          <mxGeometry x="1160" y="1302" width="180" height="45" as="geometry" />
        </mxCell>
        <mxCell id="7cZMRGCg5zAJAYEofahR-59" value="&lt;div&gt;&lt;span style=&quot;white-space: pre;&quot;&gt; &lt;/span&gt;&lt;span style=&quot;white-space: pre;&quot;&gt; &lt;/span&gt;&amp;nbsp;&amp;nbsp;&amp;nbsp;&amp;nbsp;&amp;nbsp; &lt;u&gt;Felnott&lt;br&gt;&lt;/u&gt;&lt;/div&gt;return 10" style="shape=note;size=14;whiteSpace=wrap;html=1;verticalAlign=top;align=left;" parent="1" vertex="1">
          <mxGeometry x="1160" y="1352" width="180" height="45" as="geometry" />
        </mxCell>
        <mxCell id="7cZMRGCg5zAJAYEofahR-60" value="&lt;div&gt;&lt;span style=&quot;white-space: pre;&quot;&gt; &lt;/span&gt;&lt;span style=&quot;white-space: pre;&quot;&gt; &lt;/span&gt;&amp;nbsp;&amp;nbsp;&amp;nbsp;&amp;nbsp; &lt;u&gt;Torzstag&lt;br&gt;&lt;/u&gt;&lt;/div&gt;return 30" style="shape=note;size=14;whiteSpace=wrap;html=1;verticalAlign=top;align=left;" parent="1" vertex="1">
          <mxGeometry x="1160" y="1402" width="180" height="45" as="geometry" />
        </mxCell>
        <mxCell id="7cZMRGCg5zAJAYEofahR-61" value="&lt;div&gt;&lt;span style=&quot;white-space: pre;&quot;&gt; &lt;/span&gt;&lt;span style=&quot;white-space: pre;&quot;&gt; &lt;/span&gt;&lt;span style=&quot;white-space: pre;&quot;&gt; &lt;/span&gt;&lt;u&gt;Diak&lt;br&gt;&lt;/u&gt;&lt;/div&gt;return 30" style="shape=note;size=14;whiteSpace=wrap;html=1;verticalAlign=top;align=left;" parent="1" vertex="1">
          <mxGeometry x="1350" y="1302" width="180" height="45" as="geometry" />
        </mxCell>
        <mxCell id="7cZMRGCg5zAJAYEofahR-62" value="&lt;div&gt;&lt;span style=&quot;white-space: pre;&quot;&gt; &lt;/span&gt;&lt;span style=&quot;white-space: pre;&quot;&gt; &lt;/span&gt;&amp;nbsp;&amp;nbsp;&amp;nbsp; &lt;u&gt;Nyugdijas&lt;br&gt;&lt;/u&gt;&lt;/div&gt;return 30" style="shape=note;size=14;whiteSpace=wrap;html=1;verticalAlign=top;align=left;" parent="1" vertex="1">
          <mxGeometry x="1350" y="1352" width="180" height="45" as="geometry" />
        </mxCell>
        <mxCell id="7cZMRGCg5zAJAYEofahR-63" value="KozepesTerem:" style="text;html=1;align=left;verticalAlign=middle;resizable=0;points=[];autosize=1;strokeColor=none;fillColor=none;fontSize=24;" parent="1" vertex="1">
          <mxGeometry x="1160" y="1134" width="190" height="40" as="geometry" />
        </mxCell>
        <mxCell id="7cZMRGCg5zAJAYEofahR-64" value="&lt;div&gt;&lt;span style=&quot;white-space: pre;&quot;&gt; &lt;/span&gt;&lt;span style=&quot;white-space: pre;&quot;&gt; &lt;/span&gt; &lt;u&gt;KozepesTerem&lt;br&gt;&lt;/u&gt;&lt;/div&gt;&lt;div&gt;...&lt;/div&gt;" style="shape=note;size=14;whiteSpace=wrap;html=1;verticalAlign=top;align=left;" parent="1" vertex="1">
          <mxGeometry x="1160" y="1174" width="180" height="39.5" as="geometry" />
        </mxCell>
        <mxCell id="7cZMRGCg5zAJAYEofahR-65" value="&lt;div&gt;&lt;span style=&quot;white-space: pre;&quot;&gt; &lt;/span&gt;&lt;span style=&quot;white-space: pre;&quot;&gt; &lt;/span&gt;&amp;nbsp; &amp;nbsp;&amp;nbsp;&amp;nbsp;&amp;nbsp; &lt;u&gt;Nagy&lt;br&gt;&lt;/u&gt;&lt;/div&gt;return true" style="shape=note;size=14;whiteSpace=wrap;html=1;verticalAlign=top;align=left;" parent="1" vertex="1">
          <mxGeometry x="1160" y="1589.5" width="180" height="45" as="geometry" />
        </mxCell>
        <mxCell id="7cZMRGCg5zAJAYEofahR-66" value="&lt;div&gt;&lt;span style=&quot;white-space: pre;&quot;&gt; &lt;/span&gt;&lt;span style=&quot;white-space: pre;&quot;&gt; &lt;/span&gt;&amp;nbsp;&amp;nbsp;&amp;nbsp;&amp;nbsp; &lt;u&gt;Gyerek&lt;br&gt;&lt;/u&gt;&lt;/div&gt;return 40" style="shape=note;size=14;whiteSpace=wrap;html=1;verticalAlign=top;align=left;" parent="1" vertex="1">
          <mxGeometry x="1160" y="1658" width="180" height="45" as="geometry" />
        </mxCell>
        <mxCell id="7cZMRGCg5zAJAYEofahR-68" value="&lt;div&gt;&lt;span style=&quot;white-space: pre;&quot;&gt; &lt;/span&gt;&lt;span style=&quot;white-space: pre;&quot;&gt; &lt;/span&gt;&amp;nbsp;&amp;nbsp;&amp;nbsp;&amp;nbsp; &lt;u&gt;Torzstag&lt;br&gt;&lt;/u&gt;&lt;/div&gt;return 30" style="shape=note;size=14;whiteSpace=wrap;html=1;verticalAlign=top;align=left;" parent="1" vertex="1">
          <mxGeometry x="1350" y="1713" width="180" height="45" as="geometry" />
        </mxCell>
        <mxCell id="7cZMRGCg5zAJAYEofahR-69" value="&lt;div&gt;&lt;span style=&quot;white-space: pre;&quot;&gt; &lt;/span&gt;&lt;span style=&quot;white-space: pre;&quot;&gt; &lt;/span&gt;&lt;span style=&quot;white-space: pre;&quot;&gt; &lt;/span&gt;&lt;u&gt;Diak&lt;br&gt;&lt;/u&gt;&lt;/div&gt;return 20" style="shape=note;size=14;whiteSpace=wrap;html=1;verticalAlign=top;align=left;" parent="1" vertex="1">
          <mxGeometry x="1350" y="1658" width="180" height="45" as="geometry" />
        </mxCell>
        <mxCell id="7cZMRGCg5zAJAYEofahR-70" value="&lt;div&gt;&lt;span style=&quot;white-space: pre;&quot;&gt; &lt;/span&gt;&lt;span style=&quot;white-space: pre;&quot;&gt; &lt;/span&gt;&amp;nbsp;&amp;nbsp;&amp;nbsp; &lt;u&gt;Nyugdijas&lt;br&gt;&lt;/u&gt;&lt;/div&gt;return 20" style="shape=note;size=14;whiteSpace=wrap;html=1;verticalAlign=top;align=left;" parent="1" vertex="1">
          <mxGeometry x="1160" y="1713" width="180" height="45" as="geometry" />
        </mxCell>
        <mxCell id="7cZMRGCg5zAJAYEofahR-71" value="NagyTerem:" style="text;html=1;align=left;verticalAlign=middle;resizable=0;points=[];autosize=1;strokeColor=none;fillColor=none;fontSize=24;" parent="1" vertex="1">
          <mxGeometry x="1160" y="1490" width="150" height="40" as="geometry" />
        </mxCell>
        <mxCell id="7cZMRGCg5zAJAYEofahR-72" value="&lt;div&gt;&lt;span style=&quot;white-space: pre;&quot;&gt; &lt;/span&gt;&lt;span style=&quot;white-space: pre;&quot;&gt; &lt;/span&gt;&amp;nbsp;&amp;nbsp;&amp;nbsp; &lt;u&gt;NagyTerem&lt;br&gt;&lt;/u&gt;&lt;/div&gt;&lt;div&gt;...&lt;/div&gt;" style="shape=note;size=14;whiteSpace=wrap;html=1;verticalAlign=top;align=left;" parent="1" vertex="1">
          <mxGeometry x="1160" y="1530" width="180" height="39.5" as="geometry" />
        </mxCell>
        <mxCell id="7cZMRGCg5zAJAYEofahR-80" value="&lt;div&gt;&lt;span style=&quot;white-space: pre;&quot;&gt; &lt;/span&gt;&lt;span style=&quot;white-space: pre;&quot;&gt; &lt;/span&gt;&amp;nbsp;&amp;nbsp;&amp;nbsp; &lt;u&gt;VipTerem&lt;br&gt;&lt;/u&gt;&lt;/div&gt;&lt;div&gt;...&lt;/div&gt;" style="shape=note;size=14;whiteSpace=wrap;html=1;verticalAlign=top;align=left;" parent="1" vertex="1">
          <mxGeometry x="1160" y="1840.5" width="180" height="39.5" as="geometry" />
        </mxCell>
        <mxCell id="7cZMRGCg5zAJAYEofahR-81" value="&lt;div&gt;&lt;span style=&quot;white-space: pre;&quot;&gt; &lt;/span&gt;&lt;span style=&quot;white-space: pre;&quot;&gt; &lt;span style=&quot;white-space: pre;&quot;&gt; &lt;/span&gt;&lt;/span&gt;&lt;u&gt;Vip&lt;/u&gt;&amp;nbsp; &amp;nbsp;&amp;nbsp;&amp;nbsp;&amp;nbsp; &lt;u&gt;&lt;br&gt;&lt;/u&gt;&lt;/div&gt;return true" style="shape=note;size=14;whiteSpace=wrap;html=1;verticalAlign=top;align=left;" parent="1" vertex="1">
          <mxGeometry x="1160" y="1900" width="180" height="45" as="geometry" />
        </mxCell>
        <mxCell id="7cZMRGCg5zAJAYEofahR-82" value="VipTerem:" style="text;html=1;align=left;verticalAlign=middle;resizable=0;points=[];autosize=1;strokeColor=none;fillColor=none;fontSize=24;" parent="1" vertex="1">
          <mxGeometry x="1160" y="1800.5" width="130" height="40" as="geometry" />
        </mxCell>
        <mxCell id="7cZMRGCg5zAJAYEofahR-83" value="Ules:" style="text;html=1;align=left;verticalAlign=middle;resizable=0;points=[];autosize=1;strokeColor=none;fillColor=none;fontSize=24;" parent="1" vertex="1">
          <mxGeometry x="1160" y="1985.3200000000002" width="80" height="40" as="geometry" />
        </mxCell>
        <mxCell id="7cZMRGCg5zAJAYEofahR-84" value="&lt;div&gt;&lt;span style=&quot;white-space: pre;&quot;&gt; &lt;/span&gt;&lt;span style=&quot;white-space: pre;&quot;&gt; &lt;/span&gt;&amp;nbsp;&amp;nbsp;&amp;nbsp;&amp;nbsp;&amp;nbsp;&amp;nbsp;&amp;nbsp; &lt;u&gt;Ules&lt;br&gt;&lt;/u&gt;&lt;/div&gt;&lt;div&gt;this.sor:= sor - &#39;@&#39;&lt;/div&gt;&lt;div&gt;this.szam:=szam&lt;br&gt;&lt;/div&gt;" style="shape=note;size=14;whiteSpace=wrap;html=1;verticalAlign=top;align=left;" parent="1" vertex="1">
          <mxGeometry x="1160" y="2025.3200000000002" width="180" height="57.75" as="geometry" />
        </mxCell>
        <mxCell id="7cZMRGCg5zAJAYEofahR-85" value="&lt;div&gt;&lt;span style=&quot;&quot;&gt;&lt;span style=&quot;white-space: pre;&quot;&gt;&amp;nbsp;&amp;nbsp;&amp;nbsp;&amp;nbsp;&lt;/span&gt;&lt;/span&gt;&lt;span style=&quot;&quot;&gt;&lt;span style=&quot;white-space: pre;&quot;&gt;&amp;nbsp;&amp;nbsp;&amp;nbsp;&amp;nbsp;&lt;/span&gt;&lt;/span&gt;&amp;nbsp;&amp;nbsp;&amp;nbsp;&amp;nbsp;&amp;nbsp;&amp;nbsp;&amp;nbsp;&amp;nbsp;&amp;nbsp; &lt;span style=&quot;white-space: pre;&quot;&gt; &lt;/span&gt;&lt;span style=&quot;white-space: pre;&quot;&gt; &lt;/span&gt;&amp;nbsp;&amp;nbsp;&amp;nbsp;&amp;nbsp;&amp;nbsp;&amp;nbsp; =&lt;br&gt;&lt;/div&gt;return (a.sor = b.sor) ∧ (a.szam = b.szam) " style="shape=note;size=14;whiteSpace=wrap;html=1;verticalAlign=top;align=left;" parent="1" vertex="1">
          <mxGeometry x="1160" y="2103.07" width="260" height="50" as="geometry" />
        </mxCell>
        <mxCell id="7cZMRGCg5zAJAYEofahR-86" value="Foglalas:" style="text;html=1;align=left;verticalAlign=middle;resizable=0;points=[];autosize=1;strokeColor=none;fillColor=none;fontSize=24;" parent="1" vertex="1">
          <mxGeometry x="1160" y="2200" width="120" height="40" as="geometry" />
        </mxCell>
        <mxCell id="7cZMRGCg5zAJAYEofahR-87" value="&lt;div&gt;&lt;span style=&quot;white-space: pre;&quot;&gt; &lt;/span&gt;&lt;span style=&quot;white-space: pre;&quot;&gt; &lt;/span&gt;&amp;nbsp;&amp;nbsp;&amp;nbsp; &lt;u&gt;Foglalas&lt;br&gt;&lt;/u&gt;&lt;/div&gt;&lt;div&gt;...&lt;/div&gt;&lt;div&gt;allapot:= Allapot.SZABAD&lt;br&gt;&lt;/div&gt;" style="shape=note;size=14;whiteSpace=wrap;html=1;verticalAlign=top;align=left;" parent="1" vertex="1">
          <mxGeometry x="1160" y="2240" width="180" height="60" as="geometry" />
        </mxCell>
        <mxCell id="7cZMRGCg5zAJAYEofahR-88" value="Foglalas:" style="text;html=1;align=left;verticalAlign=middle;resizable=0;points=[];autosize=1;strokeColor=none;fillColor=none;fontSize=24;" parent="1" vertex="1">
          <mxGeometry x="1160" y="2340" width="120" height="40" as="geometry" />
        </mxCell>
        <mxCell id="7cZMRGCg5zAJAYEofahR-89" value="&lt;div&gt;&lt;span style=&quot;white-space: pre;&quot;&gt; &lt;/span&gt;&lt;span style=&quot;white-space: pre;&quot;&gt; &lt;/span&gt;&amp;nbsp;&amp;nbsp;&amp;nbsp;&amp;nbsp;&amp;nbsp;&amp;nbsp; &lt;u&gt;Film&lt;br&gt;&lt;/u&gt;&lt;/div&gt;&lt;div&gt;...&lt;/div&gt;&lt;div&gt;nezettseg:= 0&lt;br&gt;&lt;/div&gt;" style="shape=note;size=14;whiteSpace=wrap;html=1;verticalAlign=top;align=left;" parent="1" vertex="1">
          <mxGeometry x="1160" y="2380" width="180" height="60" as="geometry" />
        </mxCell>
        <mxCell id="7cZMRGCg5zAJAYEofahR-90" value="&lt;div&gt;&lt;span style=&quot;white-space: pre;&quot;&gt; &lt;/span&gt;&lt;span style=&quot;white-space: pre;&quot;&gt; &lt;/span&gt;&lt;u&gt;Plusznezettseg&lt;/u&gt; &lt;u&gt;&lt;br&gt;&lt;/u&gt;&lt;/div&gt;nezettseg = nezettseg + 1" style="shape=note;size=14;whiteSpace=wrap;html=1;verticalAlign=top;align=left;" parent="1" vertex="1">
          <mxGeometry x="1160" y="2460" width="180" height="45" as="geometry" />
        </mxCell>
        <mxCell id="7cZMRGCg5zAJAYEofahR-91" value="Ules:" style="text;html=1;align=left;verticalAlign=middle;resizable=0;points=[];autosize=1;strokeColor=none;fillColor=none;fontSize=24;" parent="1" vertex="1">
          <mxGeometry x="1160" y="2550" width="80" height="40" as="geometry" />
        </mxCell>
        <mxCell id="7cZMRGCg5zAJAYEofahR-92" value="&lt;div&gt;&lt;span style=&quot;white-space: pre;&quot;&gt; &lt;/span&gt;&lt;span style=&quot;white-space: pre;&quot;&gt; &lt;/span&gt;&amp;nbsp;&amp;nbsp;&amp;nbsp;&amp;nbsp;&amp;nbsp;&amp;nbsp;&amp;nbsp; &lt;u&gt;Ules&lt;br&gt;&lt;/u&gt;&lt;/div&gt;..." style="shape=note;size=14;whiteSpace=wrap;html=1;verticalAlign=top;align=left;" parent="1" vertex="1">
          <mxGeometry x="1160" y="2590" width="180" height="47.75" as="geometry" />
        </mxCell>
        <mxCell id="7cZMRGCg5zAJAYEofahR-93" value="&lt;div&gt;&lt;span style=&quot;&quot;&gt;&lt;span style=&quot;white-space: pre;&quot;&gt;&amp;nbsp;&amp;nbsp;&amp;nbsp;&amp;nbsp;&lt;/span&gt;&lt;/span&gt;&lt;span style=&quot;&quot;&gt;&lt;span style=&quot;white-space: pre;&quot;&gt;&amp;nbsp;&amp;nbsp;&amp;nbsp;&amp;nbsp;&lt;/span&gt;&lt;/span&gt;&amp;nbsp;&amp;nbsp;&amp;nbsp;&amp;nbsp;&amp;nbsp;&amp;nbsp;&amp;nbsp;&amp;nbsp;&amp;nbsp; &lt;span style=&quot;white-space: pre;&quot;&gt; &lt;/span&gt;&lt;span style=&quot;white-space: pre;&quot;&gt; &lt;/span&gt;&amp;nbsp;&amp;nbsp;&amp;nbsp;&amp;nbsp;&amp;nbsp;&amp;nbsp; =&lt;br&gt;&lt;/div&gt;return (a.kezdet = b.kezdet) ∧ (a.veg = b.veg) " style="shape=note;size=14;whiteSpace=wrap;html=1;verticalAlign=top;align=left;" parent="1" vertex="1">
          <mxGeometry x="1160" y="2657.75" width="260" height="50" as="geometry" />
        </mxCell>
        <mxCell id="YXmX9OAFsrhP_b4jH3hi-6" style="edgeStyle=orthogonalEdgeStyle;rounded=0;orthogonalLoop=1;jettySize=auto;html=1;exitX=0.5;exitY=0;exitDx=0;exitDy=0;entryX=0.5;entryY=1;entryDx=0;entryDy=0;endArrow=block;endFill=0;dashed=1;" edge="1" parent="1" source="YXmX9OAFsrhP_b4jH3hi-1" target="qI7ad0C5QOCOGanBFrG0-33">
          <mxGeometry relative="1" as="geometry" />
        </mxCell>
        <mxCell id="YXmX9OAFsrhP_b4jH3hi-1" value="&lt;p style=&quot;margin:0px;margin-top:4px;text-align:center;&quot;&gt;&lt;b&gt;Gyerek&lt;/b&gt;&lt;br&gt;&lt;/p&gt;&lt;hr size=&quot;1&quot;&gt;&lt;p style=&quot;margin:0px;margin-left:4px;&quot;&gt;+ Gyerek(nev:string, ules:Ules)&lt;/p&gt;&lt;p style=&quot;margin:0px;margin-left:4px;&quot;&gt;+ KozepAr() : int&lt;br&gt;&lt;/p&gt;&lt;p style=&quot;margin:0px;margin-left:4px;&quot;&gt;+ NagyAr() : int&lt;br&gt;&lt;/p&gt;&lt;p style=&quot;margin:0px;margin-left:4px;&quot;&gt;&lt;/p&gt;" style="verticalAlign=top;align=left;overflow=fill;fontSize=12;fontFamily=Helvetica;html=1;whiteSpace=wrap;" vertex="1" parent="1">
          <mxGeometry x="970" y="880" width="170" height="89.79" as="geometry" />
        </mxCell>
        <mxCell id="YXmX9OAFsrhP_b4jH3hi-7" style="edgeStyle=orthogonalEdgeStyle;rounded=0;orthogonalLoop=1;jettySize=auto;html=1;exitX=0.5;exitY=0;exitDx=0;exitDy=0;endArrow=block;endFill=0;dashed=1;entryX=0.5;entryY=1;entryDx=0;entryDy=0;" edge="1" parent="1" source="YXmX9OAFsrhP_b4jH3hi-2" target="qI7ad0C5QOCOGanBFrG0-33">
          <mxGeometry relative="1" as="geometry">
            <mxPoint x="1420" y="700" as="targetPoint" />
          </mxGeometry>
        </mxCell>
        <mxCell id="YXmX9OAFsrhP_b4jH3hi-2" value="&lt;p style=&quot;margin:0px;margin-top:4px;text-align:center;&quot;&gt;&lt;b&gt;Diak&lt;/b&gt;&lt;br&gt;&lt;/p&gt;&lt;hr size=&quot;1&quot;&gt;&lt;p style=&quot;margin:0px;margin-left:4px;&quot;&gt;+ Diak(nev:string, ules:Ules)&lt;/p&gt;&lt;p style=&quot;margin:0px;margin-left:4px;&quot;&gt;+ KozepAr() : int&lt;br&gt;&lt;/p&gt;&lt;p style=&quot;margin:0px;margin-left:4px;&quot;&gt;+ NagyAr() : int&lt;br&gt;&lt;/p&gt;&lt;p style=&quot;margin:0px;margin-left:4px;&quot;&gt;&lt;/p&gt;" style="verticalAlign=top;align=left;overflow=fill;fontSize=12;fontFamily=Helvetica;html=1;whiteSpace=wrap;" vertex="1" parent="1">
          <mxGeometry x="1150" y="880" width="170" height="89.79" as="geometry" />
        </mxCell>
        <mxCell id="YXmX9OAFsrhP_b4jH3hi-8" style="edgeStyle=orthogonalEdgeStyle;rounded=0;orthogonalLoop=1;jettySize=auto;html=1;exitX=0.5;exitY=0;exitDx=0;exitDy=0;endArrow=block;endFill=0;dashed=1;entryX=0.5;entryY=1;entryDx=0;entryDy=0;" edge="1" parent="1" source="YXmX9OAFsrhP_b4jH3hi-3" target="qI7ad0C5QOCOGanBFrG0-33">
          <mxGeometry relative="1" as="geometry">
            <mxPoint x="1420" y="700" as="targetPoint" />
            <Array as="points">
              <mxPoint x="1410" y="880" />
            </Array>
          </mxGeometry>
        </mxCell>
        <mxCell id="YXmX9OAFsrhP_b4jH3hi-3" value="&lt;p style=&quot;margin:0px;margin-top:4px;text-align:center;&quot;&gt;&lt;b&gt;Felnott&lt;/b&gt;&lt;br&gt;&lt;/p&gt;&lt;hr size=&quot;1&quot;&gt;&lt;p style=&quot;margin:0px;margin-left:4px;&quot;&gt;+ Felnott(nev:string, ules:Ules)&lt;/p&gt;&lt;p style=&quot;margin:0px;margin-left:4px;&quot;&gt;+ KozepAr() : int&lt;br&gt;&lt;/p&gt;&lt;p style=&quot;margin:0px;margin-left:4px;&quot;&gt;+ NagyAr() : int&lt;br&gt;&lt;/p&gt;&lt;p style=&quot;margin:0px;margin-left:4px;&quot;&gt;&lt;/p&gt;" style="verticalAlign=top;align=left;overflow=fill;fontSize=12;fontFamily=Helvetica;html=1;whiteSpace=wrap;" vertex="1" parent="1">
          <mxGeometry x="1330" y="880" width="170" height="89.79" as="geometry" />
        </mxCell>
        <mxCell id="YXmX9OAFsrhP_b4jH3hi-9" style="edgeStyle=orthogonalEdgeStyle;rounded=0;orthogonalLoop=1;jettySize=auto;html=1;exitX=0.5;exitY=0;exitDx=0;exitDy=0;entryX=0.5;entryY=1;entryDx=0;entryDy=0;endArrow=block;endFill=0;dashed=1;" edge="1" parent="1" source="YXmX9OAFsrhP_b4jH3hi-4" target="qI7ad0C5QOCOGanBFrG0-33">
          <mxGeometry relative="1" as="geometry" />
        </mxCell>
        <mxCell id="YXmX9OAFsrhP_b4jH3hi-4" value="&lt;p style=&quot;margin:0px;margin-top:4px;text-align:center;&quot;&gt;&lt;b&gt;Nyugdijas&lt;/b&gt;&lt;br&gt;&lt;/p&gt;&lt;hr size=&quot;1&quot;&gt;&lt;p style=&quot;margin:0px;margin-left:4px;&quot;&gt;+ Nyugdijas(nev:string, ules:Ules)&lt;/p&gt;&lt;p style=&quot;margin:0px;margin-left:4px;&quot;&gt;+ KozepAr() : int&lt;br&gt;&lt;/p&gt;&lt;p style=&quot;margin:0px;margin-left:4px;&quot;&gt;+ NagyAr() : int&lt;br&gt;&lt;/p&gt;&lt;p style=&quot;margin:0px;margin-left:4px;&quot;&gt;&lt;/p&gt;" style="verticalAlign=top;align=left;overflow=fill;fontSize=12;fontFamily=Helvetica;html=1;whiteSpace=wrap;" vertex="1" parent="1">
          <mxGeometry x="1505.37" y="880" width="183.63" height="89.79" as="geometry" />
        </mxCell>
        <mxCell id="YXmX9OAFsrhP_b4jH3hi-10" style="edgeStyle=orthogonalEdgeStyle;rounded=0;orthogonalLoop=1;jettySize=auto;html=1;exitX=0.5;exitY=0;exitDx=0;exitDy=0;endArrow=block;endFill=0;dashed=1;entryX=0.5;entryY=1;entryDx=0;entryDy=0;" edge="1" parent="1" source="YXmX9OAFsrhP_b4jH3hi-5" target="qI7ad0C5QOCOGanBFrG0-33">
          <mxGeometry relative="1" as="geometry">
            <mxPoint x="1420" y="700" as="targetPoint" />
          </mxGeometry>
        </mxCell>
        <mxCell id="YXmX9OAFsrhP_b4jH3hi-5" value="&lt;p style=&quot;margin:0px;margin-top:4px;text-align:center;&quot;&gt;&lt;b&gt;Torzstag&lt;/b&gt;&lt;br&gt;&lt;/p&gt;&lt;hr size=&quot;1&quot;&gt;&lt;p style=&quot;margin:0px;margin-left:4px;&quot;&gt;+ Torzstag(nev:string, ules:Ules)&lt;/p&gt;&lt;p style=&quot;margin:0px;margin-left:4px;&quot;&gt;+ KozepAr() : int&lt;br&gt;&lt;/p&gt;&lt;p style=&quot;margin:0px;margin-left:4px;&quot;&gt;+ NagyAr() : int&lt;br&gt;&lt;/p&gt;&lt;p style=&quot;margin:0px;margin-left:4px;&quot;&gt;&lt;/p&gt;" style="verticalAlign=top;align=left;overflow=fill;fontSize=12;fontFamily=Helvetica;html=1;whiteSpace=wrap;" vertex="1" parent="1">
          <mxGeometry x="1700" y="880" width="180" height="89.79" as="geometry" />
        </mxCell>
      </root>
    </mxGraphModel>
  </diagram>
</mxfile>
